<svg id="Capa_1" enable-background="new 0 0 520 520" height="512" viewBox="0 0 520 520" width="512" xmlns="http://www.w3.org/2000/svg"><g><path d="m475 125.016v-35.016c0-24.813-20.187-45-45-45h-210.598l-7.86-12.834c-2.727-4.452-7.571-7.166-12.792-7.166h-153.75c-24.813 0-45 20.187-45 45v380c0 24.813 20.187 45 45 45h430c24.813 0 45-20.187 45-45v-279.984c0-24.814-20.187-45-45-45zm-45-50.016c8.271 0 15 6.729 15 15v35h-176.606l-30.62-50zm60 375c0 8.271-6.729 15-15 15h-430c-8.271 0-15-6.729-15-15v-380c0-8.271 6.729-15 15-15h145.347l7.857 12.83c.001.001.001.002.002.004l48.992 80c.001.001.002.003.003.004l.007.011c2.727 4.452 7.571 7.166 12.792 7.166h215c8.271 0 15 6.729 15 15z"/><path d="m310.146 376.433c19.25-29.104 16.072-68.781-9.539-94.392-29.242-29.242-76.823-29.243-106.065 0-29.242 29.242-29.242 76.823 0 106.065 14.621 14.621 33.827 21.932 53.032 21.932 14.436 0 28.871-4.132 41.36-12.393l32.887 32.888c2.929 2.929 6.768 4.394 10.606 4.394s7.678-1.465 10.606-4.394c5.858-5.857 5.858-15.355 0-21.213zm-94.392-9.539c-17.545-17.546-17.545-46.094 0-63.64 8.772-8.772 20.296-13.159 31.819-13.159 11.524 0 23.048 4.387 31.82 13.159 17.545 17.546 17.545 46.094 0 63.64-17.543 17.544-46.093 17.544-63.639 0z"/></g></svg>