<?xml version="1.0" encoding="utf-8"?>
<!-- Svg Vector Icons : http://www.onlinewebfonts.com/icon -->
<!DOCTYPE svg PUBLIC "-//W3C//DTD SVG 1.1//EN" "http://www.w3.org/Graphics/SVG/1.1/DTD/svg11.dtd">
<svg version="1.1" xmlns="http://www.w3.org/2000/svg" xmlns:xlink="http://www.w3.org/1999/xlink" x="0px" y="0px" viewBox="0 0 256 256" enable-background="new 0 0 256 256" xml:space="preserve">
<metadata> Svg Vector Icons : http://www.onlinewebfonts.com/icon </metadata>
<g><g><path fill="#FFFFFF" d="M223.9,39.5H32.1c-12.1,0-22.1,10-22.1,22.2v132.5c0,12.3,9.8,22.3,22.1,22.3h191.9c12.1,0,22.1-10,22.1-22.3V61.7C246,49.5,236.1,39.5,223.9,39.5L223.9,39.5z M231.2,194.2c0,4.1-3.3,7.5-7.3,7.5H32.1c-4,0-7.3-3.3-7.3-7.5v-81h206.5V194.2L231.2,194.2z M231.2,83.8H24.7v-22c0-4.1,3.3-7.5,7.3-7.5h191.9c4,0,7.3,3.3,7.3,7.5L231.2,83.8L231.2,83.8z M46.8,187h59.1c4,0,7.3-3.3,7.3-7.4c0-4-3.3-7.4-7.3-7.4H46.8c-4,0-7.3,3.3-7.3,7.4C39.5,183.6,42.8,187,46.8,187L46.8,187z"/></g></g>
</svg>