<?xml version="1.0" encoding="utf-8"?>
<!-- Svg Vector Icons : http://www.onlinewebfonts.com/icon -->
<!DOCTYPE svg PUBLIC "-//W3C//DTD SVG 1.1//EN" "http://www.w3.org/Graphics/SVG/1.1/DTD/svg11.dtd">
<svg version="1.1" xmlns="http://www.w3.org/2000/svg" xmlns:xlink="http://www.w3.org/1999/xlink" x="0px" y="0px" viewBox="0 0 256 256" enable-background="new 0 0 256 256" xml:space="preserve">
  <metadata> Svg Vector Icons : http://www.onlinewebfonts.com/icon </metadata>
  <g>
    <g>
      <g>
        <path fill="#fcf150" d="M11.2,25.1C9.5,27.1,9.6,29,11.3,31l1.4,1.6l14.7,0.2c8.1,0.1,14.7,0.4,14.7,0.6c0,0.4,3.8,28,5.3,37.9c1.8,12.7,17,106,17.3,106.5c0.2,0.4,26.4,0.6,81.9,0.6h81.6l0.3-1.4c0.1-0.7,4-24.5,8.5-52.9c4.5-28.4,8.4-52.5,8.6-53.5l0.4-1.9l-94.7-0.1l-94.7-0.2L53.4,46l-3.2-22.4h-19h-19L11.2,25.1z M234.7,78.7c0,0.3-3.2,20.2-7,44.4c-3.9,24.1-7,44.2-7,44.6c0,0.6-13.9,0.8-74.1,0.6l-74.1-0.2l-6.8-42.6c-3.8-23.4-7-43.7-7.2-45.1l-0.4-2.5h88.3C201.9,78.1,234.7,78.4,234.7,78.7z"/>
        <path fill="#fcf150" d="M95.5,184.4c-4.4,0.8-9.9,3.6-13.1,6.9c-9.5,9.6-9.4,24.5,0.1,33.9c14.1,14.1,37.6,6.4,41-13.4c2.2-12.7-7.1-25.2-20.2-27.4c-2.1-0.3-4-0.5-4.3-0.5C98.6,183.9,97,184.1,95.5,184.4z M106,195.1c5.2,2.5,8.9,9,8.2,14.6c-0.6,5.5-3.8,9.7-9.2,12.1c-7.6,3.5-17.2-1-19.7-9.3c-1.2-3.8-1.2-4.9-0.1-8.5C87.9,195.3,97.7,191.1,106,195.1z"/>
        <path fill="#fcf150" d="M189.3,184.4c-7.1,1.2-14.7,7.2-17.7,13.7c-3.9,8.5-2.6,18.7,3.4,25.8c2.6,3.2,8,6.5,12.5,7.7c14,3.8,28.8-6.6,30.1-21.3C218.8,194.5,204.9,181.7,189.3,184.4z M199.3,194.7c9.2,3.8,11.9,16.5,5,23.6c-6.7,7-16.8,6.3-22.7-1.4c-3.6-4.7-3.8-10.8-0.6-16.1C184.7,194.4,192.5,191.8,199.3,194.7z"/>
        <line x1="60" y1="105" x2="236" y2="105" stroke="#fcf150" stroke-width="8"/>
        <line x1="60" y1="140" x2="230" y2="140" stroke="#fcf150" stroke-width="8"/>
      </g>
    </g>
  </g>
</svg>
