<?xml version="1.0" encoding="utf-8"?>
<!-- Svg Vector Icons : http://www.onlinewebfonts.com/icon -->
<!DOCTYPE svg PUBLIC "-//W3C//DTD SVG 1.1//EN" "http://www.w3.org/Graphics/SVG/1.1/DTD/svg11.dtd">
<svg version="1.1" xmlns="http://www.w3.org/2000/svg" xmlns:xlink="http://www.w3.org/1999/xlink" x="0px" y="0px" viewBox="0 0 256 256" enable-background="new 0 0 256 256" xml:space="preserve">
<metadata> Svg Vector Icons : http://www.onlinewebfonts.com/icon </metadata>
<g><g><g><path fill="#FFFFFF" d="M41.1,10.6c-0.4,0.3-1,1-1.3,1.6c-0.8,1.5-0.8,230.1,0,231.5c0.3,0.6,0.8,1.3,1.3,1.6c1.1,0.9,172.7,0.9,173.8,0c0.4-0.3,1-1,1.3-1.6c0.4-0.8,0.6-23.5,0.6-90.8V63.3l-1.7-1.8c-1.7-1.8-45.2-43.3-51-48.8l-2.9-2.7h-59.6C55.4,10,41.7,10.1,41.1,10.6z M155.9,41.7v24.1l1.4,1.4l1.4,1.4h25.3h25.3v85v85H128H46.8V128V17.6h54.5h54.5V41.7z M185.7,43.9c9.5,9.2,17.3,16.8,17.3,16.8c0,0.1-8.9,0.2-19.8,0.2h-19.8V41.8V22.6l2.5,2.4C167.2,26.2,176.2,34.8,185.7,43.9z"/><path fill="#FFFFFF" d="M65.4,91.6c-2.2,0.9-2.7,4.3-0.9,6l1.1,1H113h47.5l1-1.1c1-1.1,1.3-2.8,0.8-4.3c-0.9-2.2,0-2.1-49.4-2.1C87.3,91.2,66,91.4,65.4,91.6z"/><path fill="#FFFFFF" d="M64.4,128.6c-1.3,1.4-1.3,3.6-0.1,5.1l0.9,1.1l61.3,0.1c48.8,0.1,61.5,0,62.4-0.5c2.5-1.3,2.7-5.2,0.5-6.5c-0.6-0.3-23.2-0.5-62.4-0.5H65.4L64.4,128.6z"/><path fill="#FFFFFF" d="M64.5,162.7c-1.6,1.5-1.6,3.9-0.1,5.3l1.1,1h61.6c49.7,0,61.7-0.1,62.3-0.7c2.1-1.6,2-4.6-0.2-6.1c-0.9-0.7-6.9-0.8-62.3-0.8H65.7L64.5,162.7z"/><path fill="#FFFFFF" d="M164.9,180.7c-7.3,1.9-13.6,7-16.8,13.4c-5.4,11-3.5,23.5,4.9,31.6c5.2,5.1,11.7,7.6,19.4,7.7c5,0,8.2-0.7,12.7-2.9c4.6-2.2,9.5-7,11.7-11.5c7.6-15.8-0.5-34-17.1-38.4C176.2,179.7,168.3,179.7,164.9,180.7z M176.2,187.2c1.7,0.4,4.1,1.1,5.2,1.7c3.3,1.7,7.8,6.3,9.5,9.9c1.4,2.8,1.5,3.4,1.5,7.8c0,4.4-0.1,5-1.6,7.9c-4,8.1-13.2,13.2-21.4,11.8c-4.2-0.7-7.6-2.5-10.8-5.5c-3.2-3.1-4.8-5.5-5.9-9.1c-2-6.8,0.1-13.7,5.9-19.1c3.1-2.9,6.1-4.5,9.9-5.3C172.1,186.4,172.5,186.4,176.2,187.2z"/><path fill="#FFFFFF" d="M64.7,198.3c-1.8,1.4-1.8,4.2-0.1,5.6c1.1,0.9,2.5,0.9,35.6,1.3c26.5,0.3,34.8,0.2,35.8-0.2c2.5-1,3-5,0.8-6.4c-0.8-0.5-7.8-0.7-35.9-0.9L66,197.3L64.7,198.3z"/></g></g></g>
</svg>