<?xml version="1.0" encoding="utf-8"?>
<!-- Svg Vector Icons : http://www.onlinewebfonts.com/icon -->
<!DOCTYPE svg PUBLIC "-//W3C//DTD SVG 1.1//EN" "http://www.w3.org/Graphics/SVG/1.1/DTD/svg11.dtd">
<svg version="1.1" xmlns="http://www.w3.org/2000/svg" xmlns:xlink="http://www.w3.org/1999/xlink" x="0px" y="0px" viewBox="0 0 256 256" enable-background="new 0 0 256 256" xml:space="preserve">
<metadata> Svg Vector Icons : http://www.onlinewebfonts.com/icon </metadata>
<g><g><path fill="#FFFFFF" d="M151.6,143.4c32.4,0,58.9-28.1,58.9-62.6s-26.4-62.6-58.9-62.6c-32.4,0-58.9,28.1-58.9,62.6C92.8,115.3,119.2,143.4,151.6,143.4L151.6,143.4L151.6,143.4z M151.6,30.1c26.2,0,47.6,22.7,47.6,50.6c0,27.9-21.4,50.7-47.6,50.7c-26.3,0-47.6-22.7-47.6-50.7C104,52.8,125.4,30.1,151.6,30.1L151.6,30.1z M240.4,237.9c3.1,0,5.6-2.7,5.6-6c0-26.7-9.8-51.9-27.5-70.9c-2.2-2.4-5.8-2.4-7.9,0c-2.2,2.3-2.2,6.1,0,8.5c15.6,16.7,24.3,38.9,24.3,62.4C234.8,235.2,237.3,237.9,240.4,237.9L240.4,237.9L240.4,237.9z M151.2,143.5c3.2,0.3,6-2.3,6.2-5.7c0.1-3.2-2.2-5.9-5.2-6.2c-0.2,0-0.4,0-0.6,0c-52,0-94.3,45-94.3,100.4c0,3.3,2.5,6,5.6,6c3.1,0,5.6-2.7,5.6-6C68.6,183.1,105.8,143.5,151.2,143.5L151.2,143.5L151.2,143.5z M86.6,42.8c3.1,0,5.6-2.7,5.6-6c0-3.3-2.5-6-5.6-6c-26.6,0-48.2,24.2-48.2,54c0,29.8,21.6,54,48.2,54c3.1,0,5.6-2.7,5.6-6c0-3.3-2.5-6-5.6-6c-20.4,0-37-18.9-37-42C49.6,61.7,66.2,42.8,86.6,42.8L86.6,42.8L86.6,42.8z M86.6,138.9c3.1,0,5.6-2.7,5.6-6s-2.5-6-5.6-6c-42.2,0-76.6,38.6-76.6,86c0,3.3,2.5,6,5.6,6s5.6-2.7,5.6-6C21.2,172.1,50.6,138.9,86.6,138.9L86.6,138.9L86.6,138.9z"/></g></g>
</svg>