<?xml version="1.0" encoding="utf-8"?>
<!-- Svg Vector Icons : http://www.onlinewebfonts.com/icon -->
<!DOCTYPE svg PUBLIC "-//W3C//DTD SVG 1.1//EN" "http://www.w3.org/Graphics/SVG/1.1/DTD/svg11.dtd">
<svg version="1.1" xmlns="http://www.w3.org/2000/svg" xmlns:xlink="http://www.w3.org/1999/xlink" x="0px" y="0px" viewBox="0 0 256 256" enable-background="new 0 0 256 256" xml:space="preserve">
<metadata> Svg Vector Icons : http://www.onlinewebfonts.com/icon </metadata>
<g><g><g><path fill="#FFFFFF" d="M209.1,75.3c-6.4,6.5-7,7.9-4.4,9.9c0.9,0.7,1.9,1.2,2.3,1.2c0.5,0,0.7,0.4,0.5,1c-0.6,1.9-15.7,61.1-15.8,61.6c0,0.3-5.8-14-12.8-31.8c-7.1-17.7-13.2-32.6-13.7-33.2c-1.9-2.1-6.3-1.4-7.4,1.1c-0.2,0.6-4.3,15.2-9.1,32.6c-4.7,17.3-8.8,31.6-8.9,31.7c-0.1,0.1-1.5,0.3-3,0.4l-2.7,0.2l-6.3-14.5c-3.4-8-6.6-14.9-7.1-15.5c-1.3-1.4-3.4-1.7-5.2-0.8c-1.3,0.7-3.4,4.1-9.5,15.7l-7.9,14.9h-2.7c-3.1,0-4.6,1.1-3.4,2.6c0.4,0.5,1.4,0.9,2.3,0.9c0.9,0,1.7,0.1,1.7,0.2c0,0.4-4.6,8.9-4.8,8.9c-0.1,0-2.1-3.2-4.3-7.1c-2.2-3.9-4.6-7.4-5.1-7.7c-1.7-0.9-3.6-0.6-5.9,0.9c-1.1,0.8-2.6,1.4-3.1,1.4c-1.3,0-2.1,0.6-2.5,1.7c-0.2,0.5-8.8,6.8-19.2,13.9c-10.4,7.2-19.3,13.6-19.7,14.3c-1.3,1.8-1,3.7,0.9,5.6c1.4,1.4,2.1,1.7,3.4,1.4c1-0.2,10.7-6.5,21.6-14.1c11-7.5,20.1-13.7,20.4-13.8c0.2-0.1,2.4,3.2,4.7,7.4c5.8,10,6,10.3,7.8,10.7c3.6,0.9,3.9,0.5,15.7-21.6c6-11.4,11.2-20.5,11.3-20.4c0.2,0.2,4.2,9.2,8.8,20.1c4.7,10.8,8.8,20.1,9.4,20.6c1.6,1.7,4.2,1.9,6,0.3c1.4-1.2,2.5-4.8,11.2-36.2c5.2-19.2,9.7-35.4,10-36.1c0.3-1,2.6,4.4,9.7,22.2c5.1,12.9,9.4,23.6,9.4,23.7s-0.9,0.2-1.9,0.2s-2.2,0.4-2.7,0.9c-0.6,0.8-0.6,1,0.3,1.7c0.6,0.5,2.1,0.8,3.4,0.8h2.3l2.7,6.9c3,7.4,4.2,9.1,6.7,9.1c2.9,0,4.3-2.1,5.9-8.3c0.8-3.1,1.6-6.2,1.8-6.7c0.2-0.7,0.9-1,2.5-1c2.9,0,4-0.5,4-1.7c0-1.2-1.1-1.7-3.5-1.7c-1,0-1.7-0.3-1.7-0.7c0-0.3,3.4-13.9,7.6-30l7.6-29.4l1.9-0.1c3.1-0.1,3.3-0.2,4.3-1.6c0.9-1.3,0.7-1.9-1.3-9C218.3,67,217.4,66.7,209.1,75.3z M138.5,154.9c-0.6,2.8-1,2.9-2.1,0.4l-1-2.2h1.8C138.8,153.1,138.9,153.2,138.5,154.9z"/><path fill="#FFFFFF" d="M10.7,150.1c-1,0.4-0.9,2.3,0.2,2.7c2.7,1,5.6-0.5,4.2-2.2C14.4,149.8,12.1,149.5,10.7,150.1z"/><path fill="#FFFFFF" d="M28.2,150.6c-1.1,1.4,0.7,2.5,4.1,2.5c3.4,0,4.5-0.4,4.5-1.7c0-1.3-1.1-1.7-4.8-1.7C29.9,149.7,28.7,150,28.2,150.6z"/><path fill="#FFFFFF" d="M50,150.1c-1,0.4-0.9,2.3,0.2,2.7c0.5,0.2,2,0.3,3.4,0.3c3.2,0,4.3-0.5,4.3-1.7c0-0.6-0.4-1.2-0.9-1.4C55.9,149.6,51.1,149.6,50,150.1z"/><path fill="#FFFFFF" d="M113.6,150.1c-0.7,0.7-0.4,2.3,0.5,2.7c0.5,0.2,2,0.3,3.4,0.3c3.2,0,4.3-0.5,4.3-1.7c0-0.6-0.4-1.2-0.9-1.4C119.6,149.6,114,149.6,113.6,150.1z"/><path fill="#FFFFFF" d="M155.9,150.3c-0.7,0.4-0.7,0.7-0.2,1.5c0.9,1.4,6.3,1.7,7.9,0.6c0.9-0.7,1-1,0.3-1.8C163.1,149.6,157.4,149.3,155.9,150.3z"/><path fill="#FFFFFF" d="M219.9,150.1c-1,0.4-0.9,2.3,0.2,2.7c1.7,0.6,6.3,0.3,7.4-0.5c0.9-0.7,1-0.9,0.3-1.7c-0.6-0.6-1.7-0.9-4-0.9C222.1,149.8,220.3,149.9,219.9,150.1z"/><path fill="#FFFFFF" d="M240.9,150.5c-1.4,1.7,1.5,3.3,4.2,2.2c0.5-0.2,0.9-0.8,0.9-1.4C246,149.6,242.2,149,240.9,150.5z"/></g></g></g>
</svg>