<?xml version="1.0" encoding="utf-8"?>
<!-- Svg Vector Icons : http://www.onlinewebfonts.com/icon -->
<!DOCTYPE svg PUBLIC "-//W3C//DTD SVG 1.1//EN" "http://www.w3.org/Graphics/SVG/1.1/DTD/svg11.dtd">
<svg version="1.1" xmlns="http://www.w3.org/2000/svg" xmlns:xlink="http://www.w3.org/1999/xlink" x="0px" y="0px" viewBox="0 0 256 256" enable-background="new 0 0 256 256" xml:space="preserve">
<metadata> Svg Vector Icons : http://www.onlinewebfonts.com/icon </metadata>
<g><g><g><path fill="#FFFFFF" d="M60.7,22.7C33.2,26,14.5,44.5,10.6,72.5c-1.7,11.9-0.1,24.6,4.8,37.4c2.6,6.9,5.4,8.8,9,6c2-1.6,2-3.9,0-8.9c-7.2-17.6-6.3-38.8,2.2-53.4c3-5.1,10.2-12.2,15.2-15.2c11-6.4,28-8.5,42.3-5.1c12.5,3,20.7,9,35.2,26.2c8.1,9.6,9,9.6,16.1,1.4c6.8-8.1,16-17.4,20.1-20.3c4.7-3.4,10.2-5.8,16.6-7.4c7.4-1.8,21.2-1.8,28.6,0c21.9,5.4,34.7,21.8,35.7,45.9c0.5,11.9-1.8,22.5-7.3,33.6c-5.8,11.7-10.3,17.5-28.2,35.7c-40.9,41.8-72.7,73.8-73.1,73.7c-0.2-0.1-13.2-13.2-28.9-29.1c-15.7-15.9-29.3-29.3-30.2-29.7c-1.4-0.6-2-0.6-3.3,0c-2,1-3.4,3.4-2.9,5.3c0.5,1.7,61.2,63.6,63.6,64.8c1.2,0.7,2.1,0.7,3.2,0.3c1.4-0.5,85.4-85.4,92.4-93.4c7.9-9,15.4-21.2,19.2-31.2c6.1-16.3,6.6-35.1,1.1-50.3c-9-25.3-33.8-39.4-63.5-36.1c-19.2,2.1-29.7,8.4-47.3,28.4l-3.4,3.8l-3.1-3.5c-17.2-19.7-28.3-26.5-46.8-28.6C72.2,22,66.4,22,60.7,22.7z"/><path fill="#FFFFFF" d="M127.5,88.4c-0.8,0.4-1.7,1.1-1.9,1.6s-5.5,14.9-11.6,32.1c-6.1,17.2-11.2,31-11.4,30.7c-0.2-0.3-4.9-12-10.5-26.1c-7-17.6-10.6-25.8-11.4-26.4c-1.5-1.1-4-1.1-5.3-0.2c-0.9,0.7-6.1,11.6-13.1,27.1l-2.3,5.2H43H26l-1.2,1.5c-1.7,2.1-1.5,4,0.2,6l1.4,1.7h19.2c17.6,0,19.3-0.1,20.4-1.1c0.7-0.6,3.5-6.2,6.4-12.6c2.8-6.3,5.4-11.3,5.5-11c0.2,0.3,5,12,10.6,26.1c5.6,14.1,10.7,26.3,11.4,27c1.5,1.7,4.7,1.8,6.3,0.3c0.6-0.6,6-14.8,11.9-31.6c6-16.8,11.1-30.3,11.3-30c0.2,0.2,2.4,7.2,4.9,15.5c2.8,9.2,5,15.5,5.7,16.2c1.1,1.1,2.1,1.2,17.5,1.4c17.7,0.2,19.7,0.1,21.4-1.7c1.6-1.6,1.5-4.7-0.2-6.3c-1.4-1.2-1.8-1.3-16.5-1.3c-15.2,0-15.2,0-15.8-1.4c-0.4-0.7-3.2-10-6.4-20.6c-3.2-10.6-6.2-19.8-6.6-20.5c-0.4-0.7-1.3-1.5-2.1-1.8C129.3,87.5,129.2,87.5,127.5,88.4z"/></g></g></g>
</svg>