<?xml version="1.0" encoding="utf-8"?>
<!-- Svg Vector Icons : http://www.onlinewebfonts.com/icon -->
<!DOCTYPE svg PUBLIC "-//W3C//DTD SVG 1.1//EN" "http://www.w3.org/Graphics/SVG/1.1/DTD/svg11.dtd">
<svg version="1.1" xmlns="http://www.w3.org/2000/svg" xmlns:xlink="http://www.w3.org/1999/xlink" x="0px" y="0px" viewBox="0 0 256 256" enable-background="new 0 0 256 256" xml:space="preserve">
<metadata> Svg Vector Icons : http://www.onlinewebfonts.com/icon </metadata>
<g><g><g><path fill="#fcf150" d="M118.9,10.1c-28,4.1-50.6,21-61.3,45.7c-7,16.1-8.1,32.1-3.4,49.5c7.7,28.1,30.9,76.2,62.4,129.2c5.3,8.8,7,10.8,10.1,11.5c1.9,0.4,5.5-1,6.9-2.6c1-1.2,9.1-14.6,15.9-26.6c29.5-51.8,48.8-94.1,53.6-118.2c7.2-35.6-15.2-72.9-51-84.8c-8.7-2.9-12.2-3.5-22.5-3.7C124.7,10,119.8,10,118.9,10.1z M141.8,19.1c13.7,2.8,25.5,9.4,35.4,19.7c10.2,10.6,16.6,23.2,18.7,37.8c1.4,9.5,0.8,17.3-2.6,29.1c-7.4,25.9-29.3,70.8-59.1,121.6c-3.3,5.6-6.2,10.2-6.3,10.2c-0.2,0-3-4.6-6.3-10.2c-31.6-53.8-53.9-100.3-60.2-125.3c-2-8.2-2.5-12.5-2.2-19.3c0.5-9.8,2.7-18.1,7.2-27c3.4-6.7,6.9-11.5,13-17.6c11.6-11.6,24.6-17.9,41.7-20.1C125.3,17.4,136.7,18,141.8,19.1z"/><path fill="#fcf150" d="M119.2,43.6c-6.8,1.6-12.5,4.2-18,8.4c-6.7,5.2-11.7,12.2-14.6,20.8c-1.5,4.3-1.7,5.7-1.9,11.9c-0.2,5.8-0.1,7.8,0.9,11.5c3.8,16,15.7,28.2,31.9,32.5c3.2,0.8,5.6,1.1,10.6,1.1s7.4-0.3,10.6-1.1c16.1-4.3,28-16.5,31.9-32.5c0.9-3.7,1-5.7,0.9-11.5c-0.2-6.2-0.4-7.6-1.9-11.9c-2.9-8.6-7.9-15.7-14.6-20.8c-4.2-3.2-11-6.6-15.7-7.9C135,43.1,123,42.7,119.2,43.6z M138.6,52.4c5.8,1.9,10.2,4.6,14.8,9.1c3.2,3.2,4.4,4.9,6.4,8.8c3.1,6.4,4.1,11.1,3.8,17.8c-0.7,14.8-10.4,27.6-24.7,32.3c-4.8,1.6-13.7,2-18.7,0.8c-6.6-1.6-11.9-4.6-17-9.6c-7-7-10.2-14-10.7-23.5c-0.3-6.8,0.7-11.5,3.8-17.8c4.9-9.8,14.7-17.1,25.8-19.1C126.5,50.4,133.9,50.9,138.6,52.4z"/><path fill="#fcf150" d="M122.5,74.4c-6.8,3.1-9.7,11.6-6.2,18.2c5.1,9.4,17.8,9.5,23.1,0.1c1.8-3.3,2.1-7.9,0.7-11.2c-1.1-2.7-4.1-5.8-6.8-7C130.7,73.1,125.3,73.1,122.5,74.4z"/></g></g></g>
</svg>