<!--?xml version="1.0" encoding="utf-8"?-->
<!-- Svg Vector Icons : http://www.onlinewebfonts.com/icon -->

<svg version="1.1" xmlns="http://www.w3.org/2000/svg" xmlns:xlink="http://www.w3.org/1999/xlink" x="0px" y="0px" viewBox="0 0 256 256" enable-background="new 0 0 256 256" xml:space="preserve">
  <metadata> Svg Vector Icons : http://www.onlinewebfonts.com/icon </metadata>
  <g>
    <g>
      <g>
        <path fill="transparent" stroke="#fcf150" stroke-width="6" data-title="Layer 0" xs="0" d="M122.1,8.8c-5.9,1-10.6,3.6-14.4,7.8c-12.1,13.4-6.1,34.7,11.1,40c4.6,1.4,11.5,1.2,16-0.5c16.3-6.3,20.9-27.7,8.7-40.2C138.2,10.5,129.4,7.6,122.1,8.8z"/>
        <path fill="transparent" stroke="#FFFFFF" stroke-width="6" data-title="Layer 1" xs="1" d="M39.1,29c-5,2.1-8.1,5.1-10.4,10c-0.9,1.9-1.1,3.4-1.1,7c0,4.2,0.2,4.9,1.7,8.1c3.2,6.6,9.1,10.3,16.5,10.3c7.4,0,13.3-3.7,16.5-10.3c1.5-3.1,1.7-3.8,1.7-8.1c-0.1-4-0.2-5-1.5-7.6c-1.9-3.9-5.2-7.2-8.9-8.9C49.5,27.5,43.2,27.3,39.1,29z"/>
        <path fill="transparent" stroke="#FFFFFF" stroke-width="6" data-title="Layer 2" xs="2" d="M200.4,28.6c-3.4,1.1-7.4,4.1-9.5,7.1c-6.6,9.7-2.9,22.5,7.8,27.5c4.2,1.9,10.4,1.9,14.6,0c8.4-3.9,12.9-13.1,10.5-21.8c-1.7-6-6.6-11.1-12.4-12.8C208.3,27.7,203.4,27.7,200.4,28.6z"/>
        <path fill="transparent" stroke="#fcf150" stroke-width="6" data-title="Layer 3" xs="3" d="M116.7,67.1c-12.9,2.3-23.9,8-26.6,13.7C89,83,89,83.7,89,117.8v34.7h4.3c2.3,0,5.4,0.2,6.8,0.3l2.6,0.3l6.8,33.5c3.7,18.4,7.2,35,7.6,36.9l0.8,3.4h9.1h9.1l0.5-2.4c0.3-1.4,3.5-18,7.1-36.9l6.6-34.5l2.3-0.3c1.3-0.2,4.1-0.3,6.3-0.3h4.1v-34.8c0-39.6,0.3-37-4.5-41.2C149.8,68.8,131,64.5,116.7,67.1z"/>
        <path fill="transparent" stroke="#FFFFFF" stroke-width="6" data-title="Layer 4" xs="4" d="M39,69.1c-10.9,2.1-19.2,6.5-21.2,11.4c-0.6,1.3-0.7,7.2-0.7,28.9v27.2h5.1h5.1l0.3,1.4c0.2,0.8,2.4,13.5,4.9,28.4c2.6,14.8,4.8,27.6,4.9,28.3l0.3,1.4h8.1H54l0.3-1.4c0.2-0.8,2.3-13,4.7-27.1c2.4-14.1,4.6-26.9,4.9-28.4l0.5-2.7h5.1h5.1v-27.3c0-26.6,0-27.4-1.1-29.5C69.9,72.4,51.7,66.7,39,69.1z"/>
        <path fill="transparent" stroke="#FFFFFF" stroke-width="6" data-title="Layer 5" xs="5" d="M201.1,68.9c-11.1,1.7-21.1,6.8-23.2,11.7c-0.5,1.3-0.7,7.2-0.7,28.9v27.2h5.1h5.1l0.5,2.7c0.3,1.5,2.5,14.3,4.9,28.4c2.4,14.1,4.5,26.3,4.7,27l0.3,1.4h8.1h8.1l0.3-1.4c0.2-0.8,2.3-13,4.7-27.1c2.4-14.1,4.6-26.9,4.9-28.4l0.5-2.7h5.1h5.1v-27.2c0-30.2,0.1-29.2-3.4-32.5C225.8,71.5,210.5,67.4,201.1,68.9z"/>
      </g>
    </g>
  </g>
</svg>
