<?xml version="1.0" encoding="utf-8"?>
<!-- Svg Vector Icons : http://www.onlinewebfonts.com/icon -->
<!DOCTYPE svg PUBLIC "-//W3C//DTD SVG 1.1//EN" "http://www.w3.org/Graphics/SVG/1.1/DTD/svg11.dtd">
<svg version="1.1" xmlns="http://www.w3.org/2000/svg" xmlns:xlink="http://www.w3.org/1999/xlink" x="0px" y="0px" viewBox="0 0 256 256" enable-background="new 0 0 256 256" xml:space="preserve">
<metadata> Svg Vector Icons : http://www.onlinewebfonts.com/icon </metadata>
<g><g><g><path fill="#000000" d="M85.3,19.7c-2.2,1.2-0.3,5,2.1,4.1c1-0.4,1.7-2.2,1.2-3C87.9,19.7,86.3,19.1,85.3,19.7z"/><path fill="#000000" d="M94.3,19.7c-2.5,1.4-0.2,5.2,2.3,3.9c1.5-0.8,1.5-3.1,0.1-3.9C95.5,18.9,95.5,18.9,94.3,19.7z"/><path fill="#000000" d="M103.4,20.2c-1.2,1.2-1,2.5,0.6,3.4c0.8,0.4,1.3,0.3,2.2-0.6c0.9-0.9,1-1.4,0.6-2.2C105.9,19.2,104.6,18.9,103.4,20.2z"/><path fill="#000000" d="M113,19.9c-1.5,1.1-1.5,2-0.1,3.2c1.8,1.6,4.5-0.4,3.4-2.5C115.5,19.3,114.3,19,113,19.9z"/><path fill="#000000" d="M66.3,29.8C65.1,31.4,66,33,67.9,33c1.8,0,2.7-1.7,1.6-3.2c-0.4-0.7-1.2-1.2-1.6-1.2C67.4,28.6,66.7,29.1,66.3,29.8z"/><path fill="#000000" d="M75.8,29.3c-0.6,0.4-1,1.3-0.8,2.1c0.1,1.1,0.6,1.4,2,1.5c1.6,0.2,1.8,0,2.2-1.3c0.3-1.1,0.1-1.7-0.6-2.3C77.2,28.4,77,28.4,75.8,29.3z"/><path fill="#000000" d="M84.8,28.9c-0.2,0.2-0.4,1.1-0.4,1.9c0,1.2,0.3,1.7,1.4,2c2.4,0.6,4.1-1.9,2.4-3.6C87.5,28.5,85.4,28.3,84.8,28.9z"/><path fill="#000000" d="M94.2,29.3c-0.6,0.4-1,1.3-0.8,2.1c0.1,1.1,0.4,1.3,2.1,1.3c1.6,0,2-0.2,2.1-1.3c0.2-1.4-0.7-2.9-1.8-2.9C95.5,28.6,94.8,28.9,94.2,29.3z"/><path fill="#000000" d="M103.4,29.7c-1.2,1.2-1,2.5,0.6,3.4c0.8,0.4,1.3,0.3,2.2-0.6c1.3-1.3,1.4-1.9,0.2-3C105.3,28.3,104.7,28.3,103.4,29.7z"/><path fill="#000000" d="M112.7,29.6c-1.2,1.3-0.9,2.5,0.7,3.4c1,0.4,1.4,0.3,2.4-0.6c1-1,1.1-1.3,0.3-2.3C115,28.4,113.9,28.3,112.7,29.6z"/><path fill="#000000" d="M56.6,39.4c-0.7,2.7,2.4,4.3,3.9,1.8c0.8-1.3-0.2-2.9-2.1-3.1C57.3,38,56.9,38.3,56.6,39.4z"/><path fill="#000000" d="M65.9,39.1c-0.7,1.3-0.2,2.7,1.1,3.1c2.1,0.7,3.8-1.3,2.7-3.3C69.1,37.7,66.7,37.8,65.9,39.1z"/><path fill="#000000" d="M75.1,38.8c-0.8,2.2,1.2,4.5,3,3.4c2.1-1.3,1.2-4.1-1.4-4.1C76,38.1,75.3,38.4,75.1,38.8z"/><path fill="#000000" d="M84.8,38.5c-0.2,0.2-0.4,1.1-0.4,1.9c0,1.2,0.3,1.7,1.4,2c2.4,0.6,4.1-1.9,2.4-3.6C87.5,38,85.4,37.8,84.8,38.5z"/><path fill="#000000" d="M93.6,38.8c-0.5,1.3-0.1,2.7,1.1,3.4c1.4,0.9,2.9-0.2,2.9-2.2c0-1.4-0.2-1.6-1.8-1.8C94.5,38.1,93.8,38.3,93.6,38.8z"/><path fill="#000000" d="M102.8,39.1c-1.1,2,0.8,3.9,3,3.1c2.2-0.8,1.3-4.1-1-4.1C104,38.1,103.2,38.5,102.8,39.1z"/><path fill="#000000" d="M112.4,38.9c-0.6,0.7-0.6,1.2-0.1,2.2c1.2,2.5,4.3,1.3,3.9-1.5C115.9,38.1,113.5,37.6,112.4,38.9z"/><path fill="#000000" d="M121.5,38.8c-0.8,2.2,1.2,4.5,3,3.4c2.1-1.3,1.2-4.1-1.4-4.1C122.4,38.1,121.7,38.4,121.5,38.8z"/><path fill="#000000" d="M130.9,38.8c-0.9,1.1-0.6,2.6,0.7,3.4c1.4,0.9,2.9-0.2,2.9-2.2c0-1.3-0.3-1.7-1.5-1.8C132.2,38.1,131.3,38.4,130.9,38.8z"/><path fill="#000000" d="M140.3,38.9c-1.5,1.8,0.7,4.5,2.7,3.3c1.9-1.2,1.2-4.1-1-4.1C141.4,38.1,140.7,38.5,140.3,38.9z"/><path fill="#000000" d="M149.3,39.2c-1.3,2.5,1.6,4.5,3.6,2.5c1.1-1,1.1-1.1,0.3-2.5C152.4,37.7,150,37.7,149.3,39.2z"/><path fill="#000000" d="M158.4,38.8c-0.8,2.2,1.2,4.5,3,3.4c2.1-1.3,1.2-4.1-1.4-4.1C159.3,38.1,158.6,38.4,158.4,38.8z"/><path fill="#000000" d="M168.1,38.5c-0.7,0.7-0.4,2.8,0.4,3.5c0.4,0.3,1.3,0.5,1.9,0.3c1.4-0.4,2-2.3,1.2-3.4C170.9,38.1,168.8,37.8,168.1,38.5z"/><path fill="#000000" d="M177.2,38.9c-1.5,1.8,0.7,4.5,2.7,3.3c1.9-1.2,1.2-4.1-1-4.1C178.3,38.1,177.6,38.5,177.2,38.9z"/><path fill="#000000" d="M186.2,39.1c-1.1,2,0.8,3.9,3,3.1c2.2-0.8,1.3-4.1-1-4.1C187.4,38.1,186.5,38.5,186.2,39.1z"/><path fill="#000000" d="M195.4,38.8c-0.8,2.2,1.2,4.5,3,3.4c2.1-1.3,1.2-4.1-1.4-4.1C196.2,38.1,195.5,38.4,195.4,38.8z"/><path fill="#000000" d="M205,38.5c-0.7,0.7-0.4,2.8,0.4,3.5c0.4,0.3,1.3,0.5,1.9,0.3c1.4-0.4,2-2.3,1.2-3.4C207.8,38.1,205.7,37.8,205,38.5z"/><path fill="#000000" d="M214.2,38.8c-0.9,1.1-0.6,2.6,0.7,3.4c1.4,0.9,2.9-0.2,2.9-2.2c0-1.3-0.3-1.7-1.5-1.8C215.5,38.1,214.6,38.4,214.2,38.8z"/><path fill="#000000" d="M85.1,47.5c-0.4,0.3-0.7,1.2-0.6,2.1c0.1,1.2,0.5,1.7,1.5,1.8c2.5,0.4,3.7-1.8,2-3.5C87,46.9,86.2,46.8,85.1,47.5z"/><path fill="#000000" d="M195.7,47.8c-0.4,0.6-0.6,1.5-0.4,2.4c0.3,1.1,0.7,1.4,1.8,1.2c0.8-0.1,1.7-0.6,2.1-1.2C200.6,48.2,197.3,46,195.7,47.8z"/><path fill="#000000" d="M205.2,47.9c-1.5,1.8,0.7,4.5,2.7,3.3c1.3-0.8,1.5-2.1,0.4-3.2C207.2,46.8,206.1,46.8,205.2,47.9z"/><path fill="#000000" d="M214.3,47.7c-0.4,0.4-0.7,1.1-0.7,1.6c0,2.4,4,3,4.4,0.6C218.3,47.6,215.9,46.1,214.3,47.7z"/><path fill="#000000" d="M223.9,47.5c-1,0.6-1.2,2-0.7,3c0.7,1.3,3.1,1.3,3.8-0.1c0.7-1.4,0.7-1.5-0.3-2.5C225.7,47,224.8,46.8,223.9,47.5z"/><path fill="#000000" d="M29,48.5c-0.8,1-0.3,2.2,1.4,3.2c1.4,0.9,3.4-1.5,2.6-3.1C32.2,47.3,30,47.2,29,48.5z"/><path fill="#000000" d="M38.4,48c-0.7,0.7-0.4,2.8,0.4,3.5c1.7,1.4,4-0.6,3.4-2.9C41.8,47.6,39.1,47.1,38.4,48z"/><path fill="#000000" d="M47.2,48.6c-0.7,2.3,1.1,4,3.1,2.9c0.8-0.4,1.1-1.1,1-2.1c-0.1-1.2-0.5-1.6-2-1.7C48,47.6,47.5,47.7,47.2,48.6z"/><path fill="#000000" d="M56.7,48.1c-0.6,1,0.2,3.2,1.2,3.6c1.5,0.6,3.1-0.7,2.9-2.3c-0.1-1.2-0.5-1.6-2-1.7C57.9,47.6,56.9,47.8,56.7,48.1z"/><path fill="#000000" d="M65.9,48.7c-0.5,0.9-0.4,1.4,0.3,2.2c1.2,1.4,2.2,1.3,3.2-0.2c0.6-0.8,0.7-1.5,0.3-2.2C69.1,47.2,66.7,47.3,65.9,48.7z"/><path fill="#000000" d="M75.3,48c-0.7,0.7-0.4,2.8,0.4,3.5c0.7,0.6,1.2,0.6,2.2,0.1c1.4-0.7,1.7-1.5,1.1-3.1C78.7,47.6,76,47.2,75.3,48z"/><path fill="#000000" d="M93.7,47.9c-0.9,1-0.3,3.1,1,3.7c1.8,0.8,3.2-0.3,3-2.3c-0.1-1.2-0.5-1.5-1.8-1.6C94.9,47.6,94,47.7,93.7,47.9z"/><path fill="#000000" d="M102.9,48.6c-0.4,0.8-0.3,1.4,0.3,2.2c1.1,1.5,2,1.6,3.2,0.2c0.8-0.8,0.8-1.3,0.3-2.2C106,47.3,103.6,47.2,102.9,48.6z"/><path fill="#000000" d="M112.4,48.4c-1.6,1.8,1.2,4.6,3.1,3.1c0.4-0.4,0.8-1.3,0.7-2.1c-0.1-1.1-0.5-1.5-1.6-1.6C113.8,47.6,112.8,47.9,112.4,48.4z"/><path fill="#000000" d="M121.7,48c-0.7,0.7-0.4,2.8,0.4,3.5c1.7,1.4,4-0.6,3.4-2.9C125.2,47.6,122.5,47.1,121.7,48z"/><path fill="#000000" d="M130.6,48.6c-0.5,1.5,0.1,2.8,1.4,3.2c1.5,0.5,2.9-0.7,2.6-2.5c-0.1-1.2-0.5-1.5-2-1.6C131.3,47.6,130.8,47.7,130.6,48.6z"/><path fill="#000000" d="M140.4,48.4c-0.9,1.1-0.3,3,1.1,3.4c1.5,0.5,2.9-0.7,2.6-2.5c-0.1-1.1-0.5-1.5-1.6-1.6C141.7,47.6,140.8,47.9,140.4,48.4z"/><path fill="#000000" d="M149.3,48.6c-1.3,2.5,1.7,4.5,3.5,2.3c0.7-1,0.8-1.5,0.4-2.3C152.4,47.2,150,47.2,149.3,48.6z"/><path fill="#000000" d="M158.6,48c-0.7,0.7-0.4,2.8,0.4,3.5c0.7,0.6,1.2,0.6,2.2,0.1c1.4-0.7,1.7-1.5,1.1-3.1C162,47.6,159.3,47.2,158.6,48z"/><path fill="#000000" d="M168.1,48c-0.7,0.7-0.4,2.8,0.4,3.5c0.4,0.3,1.3,0.5,1.9,0.3c1.4-0.4,2-2.3,1.2-3.4C170.9,47.6,168.8,47.3,168.1,48z"/><path fill="#000000" d="M177.3,48.4c-0.9,1.1-0.3,3,1.1,3.4c1.5,0.5,2.9-0.7,2.6-2.5c-0.1-1.1-0.5-1.5-1.6-1.6C178.6,47.6,177.7,47.9,177.3,48.4z"/><path fill="#000000" d="M186.2,48.6c-0.4,0.8-0.3,1.4,0.3,2.2c1.1,1.5,2,1.6,3.2,0.2c0.8-0.8,0.8-1.3,0.3-2.2C189.3,47.3,187,47.2,186.2,48.6z"/><path fill="#000000" d="M215.2,56.4c-1.1,0.3-1.7,1.8-1.2,3.1c0.8,2.2,4.1,1.3,4.1-1C218.1,57,216.7,56,215.2,56.4z"/><path fill="#000000" d="M223.7,57.1c-1.2,1.2-1,2.5,0.7,3.5c1,0.5,1.3,0.4,2.2-0.7C228.4,57.6,225.7,55,223.7,57.1z"/><path fill="#000000" d="M10.3,57.4c-0.6,1.6-0.4,2.5,0.8,3.1c1.7,0.9,3.5-0.2,3.2-2.1c-0.1-1.2-0.5-1.6-1.9-1.7C11.2,56.5,10.6,56.7,10.3,57.4z"/><path fill="#000000" d="M19.8,57.4c-0.6,1.5-0.4,2.4,0.8,3c2.2,1.2,4.5-1.5,2.7-3.2C22.4,56.2,20.2,56.4,19.8,57.4z"/><path fill="#000000" d="M29.1,57.2c-1,1-0.8,1.8,0.4,2.9c1.8,1.7,4.4-0.4,3.3-2.6C32.3,56.4,30.1,56.2,29.1,57.2z"/><path fill="#000000" d="M38.4,56.9c-0.8,0.8-0.3,3,0.8,3.6c1,0.5,1.4,0.4,2.3-0.5c1.6-1.6,0.9-3.5-1.2-3.5C39.4,56.5,38.5,56.7,38.4,56.9z"/><path fill="#000000" d="M47.2,57.5c-0.7,2.3,1.1,4,3.1,2.9c0.8-0.4,1.1-1.1,1-2.1c-0.1-1.2-0.5-1.6-2-1.7C48,56.5,47.5,56.7,47.2,57.5z"/><path fill="#000000" d="M56.6,58c-0.3,1.1-0.1,1.7,0.6,2.2c0.6,0.4,1.2,0.7,1.4,0.7c0.2,0,0.8-0.3,1.4-0.7c0.7-0.6,0.9-1.2,0.6-2.2c-0.3-1.2-0.7-1.5-2-1.5C57.3,56.5,56.9,56.8,56.6,58z"/><path fill="#000000" d="M65.9,57.7c-0.5,0.9-0.4,1.4,0.3,2.2c1.2,1.4,2.2,1.3,3.2-0.2c0.6-0.8,0.7-1.5,0.3-2.2C69.1,56.1,66.7,56.2,65.9,57.7z"/><path fill="#000000" d="M75.3,56.9c-0.7,0.7-0.4,2.8,0.4,3.5c1.7,1.4,4-0.6,3.4-2.9C78.7,56.5,76.1,56.1,75.3,56.9z"/><path fill="#000000" d="M84.8,56.9c-1.5,1.5,0.7,4.5,2.6,3.7c1.2-0.4,1.7-2.3,0.9-3.3C87.6,56.5,85.4,56.2,84.8,56.9z"/><path fill="#000000" d="M94,57.3c-0.4,0.4-0.6,1.4-0.5,2.1c0.1,1,0.5,1.3,1.8,1.3c2,0,3.1-1.5,2.2-3C96.7,56.5,94.8,56.2,94,57.3z"/><path fill="#000000" d="M103.2,57.4c-1.1,1-1.1,1.1-0.3,2.5c0.8,1.4,3.1,1.4,3.9-0.1C108,57.4,105.1,55.4,103.2,57.4z"/><path fill="#000000" d="M112.2,57.9c-0.8,1.8,0.3,3.2,2.3,3c1.1-0.1,1.5-0.5,1.6-1.8C116.5,56.4,113.4,55.5,112.2,57.9z"/><path fill="#000000" d="M121.9,57.3c-0.4,0.4-0.6,1.4-0.5,2.1c0.1,1,0.5,1.3,1.8,1.3c2,0,3.1-1.5,2.2-3C124.7,56.5,122.8,56.2,121.9,57.3z"/><path fill="#000000" d="M130.9,57.3c-0.9,1.1-0.6,2.6,0.7,3.4c1.4,0.9,2.9-0.2,2.9-2.2c0-1.3-0.3-1.7-1.5-1.8C132.2,56.5,131.3,56.9,130.9,57.3z"/><path fill="#000000" d="M140.3,57.4c-1.5,1.8,0.7,4.5,2.7,3.3c1.9-1.2,1.2-4.1-1-4.1C141.4,56.5,140.7,56.9,140.3,57.4z"/><path fill="#000000" d="M149.3,57.6c-0.4,0.8-0.4,1.5,0,2.2c0.8,1.5,3.1,1.5,3.9,0.1c0.7-1.4,0.7-1.5-0.3-2.5C151.7,56.2,150,56.3,149.3,57.6z"/><path fill="#000000" d="M158.8,57.3c-0.4,0.4-0.6,1.4-0.5,2.1c0.1,1,0.5,1.3,1.8,1.3c2,0,3.1-1.5,2.2-3C161.6,56.5,159.7,56.2,158.8,57.3z"/><path fill="#000000" d="M168.3,57.3c-0.4,0.4-0.6,1.4-0.5,2.1c0.1,1,0.5,1.3,1.8,1.3c2,0,3.1-1.5,2.2-3C171.1,56.5,169.2,56.2,168.3,57.3z"/><path fill="#000000" d="M177.2,57.4c-1.5,1.8,0.7,4.5,2.7,3.3c1.9-1.2,1.2-4.1-1-4.1C178.3,56.5,177.6,56.9,177.2,57.4z"/><path fill="#000000" d="M186.2,57.6c-0.8,1.6,0.2,3.4,2,3.4s2.8-1.8,2-3.4c-0.3-0.7-1.2-1.1-2-1.1C187.4,56.5,186.5,57,186.2,57.6z"/><path fill="#000000" d="M195.5,56.9c-1.5,1.5,0.7,4.5,2.6,3.7c1-0.4,1.7-2.6,1.2-3.5C198.9,56.5,196.1,56.3,195.5,56.9z"/><path fill="#000000" d="M205,56.9c-0.8,0.8-0.3,3,0.8,3.6c1,0.5,1.4,0.4,2.4-0.6c0.9-1,1-1.4,0.6-2.2C208.2,56.7,205.7,56.2,205,56.9z"/><path fill="#000000" d="M20.5,66.1c-2.5,1.4-0.2,5.2,2.3,3.9c1.4-0.7,1.5-2.3,0.1-3.5C21.8,65.3,21.8,65.3,20.5,66.1z"/><path fill="#000000" d="M29.4,66.4c-1.2,1.2-1.1,2.2,0.3,3.2c0.8,0.6,1.5,0.7,2.2,0.3c1.3-0.7,1.3-3.1-0.1-3.9C30.5,65.3,30.4,65.3,29.4,66.4z"/><path fill="#000000" d="M39,66.1c-2.1,1.2-0.5,4.8,1.8,4c1.8-0.6,2.2-2.3,0.8-3.7C40.5,65.3,40.3,65.3,39,66.1z"/><path fill="#000000" d="M47.8,66.2c-2.2,1.6,0.3,5,2.7,3.6c1.2-0.7,1.1-3.1-0.2-3.8C48.9,65.3,49,65.3,47.8,66.2z"/><path fill="#000000" d="M57.4,66.1c-1.5,0.8-1.3,3.2,0.3,3.8c0.7,0.3,1.7,0.3,2.2-0.1c1.3-0.7,1.2-3.1-0.1-3.8C58.5,65.4,58.6,65.4,57.4,66.1z"/><path fill="#000000" d="M66.5,66.5c-1.3,1.1-1.1,2.6,0.6,3.5c0.8,0.4,1.3,0.3,2.2-0.6C71.4,67.3,68.8,64.6,66.5,66.5z"/><path fill="#000000" d="M75.9,66.1c-1.3,0.8-1.3,3.1,0.1,3.9c2.5,1.3,4.5-1.6,2.5-3.6C77.5,65.3,77.2,65.3,75.9,66.1z"/><path fill="#000000" d="M85.4,66.1c-1.3,0.7-1.3,3.1-0.1,3.7c2.3,1.3,4.5-1.3,2.7-3.3C86.8,65.3,86.7,65.3,85.4,66.1z"/><path fill="#000000" d="M94.3,66.1c-2.5,1.4-0.2,5.2,2.3,3.9c1.5-0.8,1.5-3.1,0.1-3.9C95.5,65.4,95.5,65.4,94.3,66.1z"/><path fill="#000000" d="M103.2,66.6c-1,1.3-0.7,2.5,0.8,3.4c0.8,0.4,1.3,0.3,2.2-0.7c1-1,1.1-1.3,0.3-2.3C105.5,65.3,104.2,65.2,103.2,66.6z"/><path fill="#000000" d="M112.7,66.4c-1.4,1.3-1,3.1,0.8,3.7c2.4,0.8,3.9-2.8,1.7-4C113.8,65.3,113.7,65.3,112.7,66.4z"/><path fill="#000000" d="M122.3,66.1c-1.8,1.1-0.7,4.4,1.5,4.4c0.6,0,2-1.8,2-2.5c0-0.8-1.5-2.5-2.1-2.5C123.4,65.5,122.8,65.8,122.3,66.1z"/><path fill="#000000" d="M131.1,66.2c-2.2,1.6,0.3,5,2.7,3.6c1.2-0.7,1.1-3.1-0.2-3.8C132.3,65.3,132.3,65.3,131.1,66.2z"/><path fill="#000000" d="M140.6,66.2c-1.2,0.9-0.8,3.4,0.6,4c2.4,1,4.3-2.9,2-4.1C141.8,65.3,141.8,65.3,140.6,66.2z"/><path fill="#000000" d="M149.6,66.4c-1.2,1.2-1.1,2.2,0.3,3.2c2.3,1.6,4.6-1.1,2.7-3C151.3,65.2,150.7,65.2,149.6,66.4z"/><path fill="#000000" d="M159.2,66.1c-1.3,0.8-1.3,3.1,0.1,3.9c2.5,1.3,4.5-1.6,2.5-3.6C160.8,65.3,160.5,65.3,159.2,66.1z"/><path fill="#000000" d="M168.7,66.1c-1.3,0.7-1.3,3.1,0,3.8c0.8,0.4,1.4,0.3,2.2-0.3c1.5-1.1,1.6-2,0.2-3.2C170,65.3,170,65.3,168.7,66.1z"/><path fill="#000000" d="M177.6,66.4c-0.5,0.4-0.9,1.2-0.9,1.6c0,0.7,1.5,2.5,2,2.5c1.1,0,2.5-1.4,2.5-2.5c0-0.8-0.4-1.6-1.1-2C178.7,65.3,178.6,65.3,177.6,66.4z"/><path fill="#000000" d="M186.5,66.6c-1.6,2.3,0.8,4.6,3.1,2.8c1.2-1,1.2-1.1,0.3-2.5C188.8,65.2,187.6,65.1,186.5,66.6z"/><path fill="#000000" d="M196.1,66.1c-2.5,1.4-0.2,5.2,2.3,3.9c1.5-0.8,1.5-3.1,0.1-3.9C197.3,65.4,197.3,65.4,196.1,66.1z"/><path fill="#000000" d="M205.6,66.1c-1.3,0.7-1.3,3.1-0.1,3.7c2.4,1.3,4.5-1.3,2.7-3.3C207.1,65.3,207,65.3,205.6,66.1z"/><path fill="#000000" d="M214.5,66.4c-1.4,1.3-1,3.1,0.8,3.7c2.4,0.8,3.9-2.8,1.7-4C215.6,65.3,215.5,65.3,214.5,66.4z"/><path fill="#000000" d="M223.7,66.6c-2,2,0.4,4.6,2.7,3c1.5-1.1,1.6-2,0.2-3.2C225.2,65.2,225,65.2,223.7,66.6z"/><path fill="#000000" d="M20.1,75.8c-0.4,0.5-0.6,1.4-0.3,2.2c0.3,1.2,0.6,1.5,2.2,1.3c2.1-0.2,2.7-2,1.2-3.5C22,74.8,21,74.8,20.1,75.8z"/><path fill="#000000" d="M29.4,75.9c-1.7,1.7-0.4,3.9,2,3.5c1.5-0.2,2.1-2.3,1-3.6C31.5,74.8,30.4,74.8,29.4,75.9z"/><path fill="#000000" d="M38.5,75.8c-1.1,1.3-0.4,3.4,1,3.6c2.6,0.4,4-2.6,1.8-3.8C39.9,74.8,39.4,74.8,38.5,75.8z"/><path fill="#000000" d="M47.9,75.6c-2.1,1.2-0.6,4.1,1.9,3.7c1.5-0.2,2.1-2.3,1-3.6C50,74.9,49.3,74.8,47.9,75.6z"/><path fill="#000000" d="M57.3,75.7c-0.7,0.6-0.9,1.2-0.6,2.3c0.3,1.3,0.6,1.5,2.2,1.3c1.4-0.1,1.8-0.4,2-1.5c0.2-0.8-0.2-1.7-0.8-2.1C58.8,74.8,58.5,74.8,57.3,75.7z"/><path fill="#000000" d="M66.3,76c-1.3,1.4-0.3,3.4,1.6,3.4c1.8,0,2.7-1.7,1.6-3.2C68.4,74.7,67.5,74.6,66.3,76z"/><path fill="#000000" d="M75.4,75.8c-0.3,0.4-0.6,1.4-0.4,2.1c0.1,1,0.6,1.3,2,1.5c1.6,0.2,1.8,0,2.2-1.3C79.7,75.7,76.9,74,75.4,75.8z"/><path fill="#000000" d="M84.8,75.4c-0.2,0.2-0.4,1.1-0.4,1.9c0,1.2,0.3,1.7,1.4,2c2.4,0.6,4.1-1.9,2.4-3.6C87.5,74.9,85.4,74.8,84.8,75.4z"/><path fill="#000000" d="M93.9,75.8c-0.3,0.4-0.6,1.4-0.4,2.1c0.1,1.1,0.5,1.3,2.1,1.3c1.6,0,2-0.2,2.1-1.3c0.2-1.6-0.8-2.9-2.1-2.9C95,75,94.3,75.4,93.9,75.8z"/><path fill="#000000" d="M103.2,76.2c-0.6,0.8-0.7,1.5-0.3,2.2c0.7,1.3,3.1,1.3,3.9-0.1c0.7-1.4,0.7-1.5-0.3-2.5C105.2,74.6,104.2,74.8,103.2,76.2z"/><path fill="#000000" d="M112.7,75.9c-1.6,1.6-0.7,3.6,1.7,3.6c1.8,0,2.6-1.7,1.5-3.2C114.9,74.8,113.9,74.6,112.7,75.9z"/><path fill="#000000" d="M121.9,75.8c-0.3,0.4-0.6,1.4-0.4,2.1c0.1,1,0.6,1.3,2,1.5c1.6,0.2,1.8,0,2.2-1.3C126.2,75.7,123.4,74,121.9,75.8z"/><path fill="#000000" d="M131.3,75.6c-2.1,1.2-0.6,4.1,1.9,3.7c1.5-0.2,2.1-2.3,1-3.6C133.4,74.9,132.6,74.8,131.3,75.6z"/><path fill="#000000" d="M140.6,75.7c-0.7,0.6-0.9,1.2-0.6,2.3c0.3,1.3,0.6,1.5,2.2,1.3c1.4-0.1,1.8-0.4,2-1.5c0.2-0.8-0.2-1.7-0.8-2.1C142.1,74.8,141.9,74.8,140.6,75.7z"/><path fill="#000000" d="M149.6,75.9c-1.6,1.6-0.7,3.6,1.7,3.6c1.8,0,2.6-1.7,1.5-3.2C151.8,74.8,150.8,74.6,149.6,75.9z"/><path fill="#000000" d="M158.8,75.8c-0.3,0.4-0.6,1.4-0.4,2.1c0.1,1,0.6,1.3,2,1.5c1.6,0.2,1.8,0,2.2-1.3C163.1,75.7,160.3,74,158.8,75.8z"/><path fill="#000000" d="M168.3,75.8c-1.1,1.3-0.4,3.4,1,3.6c2.5,0.4,3.7-1.8,2-3.5C170.2,74.8,169.2,74.8,168.3,75.8z"/><path fill="#000000" d="M177.5,75.7c-0.7,0.6-0.9,1.2-0.6,2.3c0.3,1.3,0.6,1.5,2.2,1.3c1.4-0.1,1.8-0.4,2-1.5c0.2-0.8-0.2-1.7-0.8-2.1C179,74.8,178.8,74.8,177.5,75.7z"/><path fill="#000000" d="M186.5,75.9c-1.1,1-1.1,1.1-0.3,2.5c0.3,0.6,1.2,1.1,2,1.1c1.1,0,2.5-1.3,2.5-2.5c0-0.6-1.8-2-2.5-2C187.7,75,187,75.4,186.5,75.9z"/><path fill="#000000" d="M195.4,75.8c-0.8,2.2,1.2,4.5,3,3.4c2.1-1.3,1.2-4.1-1.4-4.1C196.2,75,195.5,75.3,195.4,75.8z"/><path fill="#000000" d="M205,75.4c-0.7,0.7-0.4,2.8,0.4,3.5c0.4,0.3,1.3,0.5,1.9,0.3c1.4-0.4,2-2.3,1.2-3.4C207.8,75,205.7,74.7,205,75.4z"/><path fill="#000000" d="M214.2,75.8c-0.9,1.1-0.6,2.6,0.7,3.4c1.4,0.9,2.9-0.2,2.9-2.2c0-1.3-0.3-1.7-1.5-1.8C215.5,75,214.6,75.3,214.2,75.8z"/><path fill="#000000" d="M223.2,75.9c-1.1,2,0.7,4.1,2.9,3.2c2.2-0.8,1.3-4.1-1-4.1C224.3,75,223.5,75.4,223.2,75.9z"/><path fill="#000000" d="M232.6,76c-0.7,1.3-0.2,2.7,1.1,3.1c2.1,0.7,3.8-1.3,2.7-3.3C235.7,74.6,233.3,74.8,232.6,76z"/><path fill="#000000" d="M20.2,85.2c-1.8,1.8,0.4,4.5,2.7,3.2c1.9-1,1.1-3.9-1.1-3.9C21.2,84.5,20.6,84.8,20.2,85.2z"/><path fill="#000000" d="M29,85.7c-0.6,1-0.5,1.4,0.5,2.4c1.5,1.5,3.1,0.7,3.1-1.7c0-1.3-0.3-1.7-1.5-1.8C30.1,84.5,29.5,84.8,29,85.7z"/><path fill="#000000" d="M38.4,84.9c-0.7,0.7-0.4,2.8,0.4,3.5c1.8,1.5,4.6-1.3,3.1-3.1C41.2,84.5,39,84.2,38.4,84.9z"/><path fill="#000000" d="M47.5,85.3c-1.6,1.8,1.2,4.6,3.1,3.1c0.4-0.4,0.8-1.3,0.7-2.1c-0.1-1.1-0.5-1.5-1.6-1.6C48.9,84.5,47.9,84.8,47.5,85.3z"/><path fill="#000000" d="M57.1,85.2c-1.8,1.8,1,4.9,3,3.2c1.6-1.3,0.7-3.9-1.4-3.9C58.2,84.5,57.5,84.8,57.1,85.2z"/><path fill="#000000" d="M65.9,85.7c-0.5,0.9-0.4,1.4,0.3,2.2c1.2,1.4,2.2,1.3,3.2-0.2c0.6-0.8,0.7-1.5,0.3-2.2C69.1,84.1,66.7,84.2,65.9,85.7z"/><path fill="#000000" d="M75.3,84.9c-0.7,0.7-0.4,2.8,0.4,3.5c2,1.6,4.8-1.5,3-3.2C78,84.4,75.9,84.3,75.3,84.9z"/><path fill="#000000" d="M84.8,84.9c-0.7,0.7-0.4,2.8,0.4,3.5c1.8,1.5,4.6-1.3,3.1-3.1C87.6,84.5,85.4,84.2,84.8,84.9z"/><path fill="#000000" d="M93.6,85.3c-0.5,1.3-0.1,2.7,1.1,3.4c1.4,0.9,2.9-0.2,2.9-2.2c0-1.4-0.2-1.6-1.8-1.8C94.5,84.5,93.8,84.7,93.6,85.3z"/><path fill="#000000" d="M102.8,85.6c-0.4,0.8-0.3,1.3,0.4,2.3c1.8,2.2,4.8,0.2,3.5-2.3C106,84.2,103.6,84.2,102.8,85.6z"/><path fill="#000000" d="M112.4,85.6c-0.8,1.4-0.3,2.7,1.1,3.1c1.5,0.5,2.9-0.7,2.6-2.5C115.9,84.3,113.3,83.8,112.4,85.6z"/><path fill="#000000" d="M121.7,84.9c-0.7,0.7-0.4,2.8,0.4,3.5c1.8,1.5,4.6-1.3,3.1-3.1C124.5,84.5,122.4,84.2,121.7,84.9z"/><path fill="#000000" d="M130.9,85.3c-0.9,1.1-0.3,3,1.1,3.4c1.5,0.5,2.9-0.7,2.6-2.5c-0.1-1.1-0.5-1.5-1.6-1.6C132.2,84.5,131.3,84.8,130.9,85.3z"/><path fill="#000000" d="M140.4,85.2c-1.8,1.8,1,4.9,3,3.2c1.6-1.3,0.7-3.9-1.4-3.9C141.5,84.5,140.8,84.8,140.4,85.2z"/><path fill="#000000" d="M149.3,85.6c-1.3,2.5,1.7,4.5,3.5,2.3c0.7-1,0.8-1.5,0.4-2.3C152.4,84.2,150,84.2,149.3,85.6z"/><path fill="#000000" d="M158.4,85.3c-0.8,2.2,1.2,4.5,3,3.4c2.1-1.3,1.2-4.1-1.4-4.1C159.3,84.5,158.6,84.8,158.4,85.3z"/><path fill="#000000" d="M168.1,84.9c-0.7,0.7-0.4,2.8,0.4,3.5c0.4,0.3,1.3,0.5,1.9,0.3c1.4-0.4,2-2.3,1.2-3.4C170.9,84.5,168.8,84.2,168.1,84.9z"/><path fill="#000000" d="M177.2,85.3c-0.8,1.1-0.2,2.9,1.2,3.4c2.1,0.7,3.6-2,2.1-3.5C179.6,84.3,178.1,84.3,177.2,85.3z"/><path fill="#000000" d="M186.2,85.6c-1.1,2,0.8,3.9,3,3.1c2.2-0.8,1.3-4.1-1-4.1C187.4,84.5,186.5,84.9,186.2,85.6z"/><path fill="#000000" d="M195.4,85.3c-0.5,1.3-0.1,2.7,1.1,3.4c1.4,0.9,2.9-0.2,2.9-2.2c0-1.4-0.2-1.6-1.8-1.8C196.2,84.5,195.6,84.7,195.4,85.3z"/><path fill="#000000" d="M205,84.9c-0.7,0.7-0.4,2.8,0.4,3.5c1.1,0.8,2.9,0.2,3.4-1.2c0.2-0.6,0.1-1.5-0.3-1.9C207.8,84.5,205.7,84.2,205,84.9z"/><path fill="#000000" d="M214.2,85.3c-0.9,1.1-0.3,3,1.1,3.4c1.5,0.5,2.9-0.7,2.6-2.5c-0.1-1.1-0.5-1.5-1.6-1.6C215.5,84.5,214.6,84.8,214.2,85.3z"/><path fill="#000000" d="M223.1,85.5c-0.4,0.8-0.3,1.4,0.3,2.2c1.1,1.5,2,1.6,3.2,0.2c0.8-0.8,0.8-1.3,0.3-2.2C226.2,84.2,223.9,84.1,223.1,85.5z"/><path fill="#000000" d="M232.6,85.6c-1.3,2.5,1.7,4.5,3.5,2.3c0.7-1,0.8-1.5,0.4-2.3C235.7,84.2,233.4,84.2,232.6,85.6z"/><path fill="#000000" d="M10.6,94.3c-1.5,1.8,0.7,4.5,2.7,3.3c1.9-1.2,1.2-4.1-1-4.1C11.7,93.4,11,93.8,10.6,94.3z"/><path fill="#000000" d="M20.2,94.1c-1.4,1.4-0.4,3.8,1.6,3.8c1.6,0,2.5-1.5,1.7-3.1C22.9,93.3,21.3,93,20.2,94.1z"/><path fill="#000000" d="M29.4,94.3c-1.1,1.1-1.1,1.4-0.2,2.7c1.1,1.5,3.4,1,3.6-0.7C33.2,93.9,31,92.6,29.4,94.3z"/><path fill="#000000" d="M38.6,94.2c-0.4,0.4-0.6,1.4-0.5,2.1c0.1,1,0.5,1.3,1.8,1.3c2,0,3.1-1.5,2.2-3C41.3,93.4,39.4,93.2,38.6,94.2z"/><path fill="#000000" d="M47.5,94.3c-1.5,1.8,0.7,4.5,2.7,3.3c1.9-1.2,1.2-4.1-1-4.1C48.6,93.4,47.9,93.8,47.5,94.3z"/><path fill="#000000" d="M57,94.3c-1.5,1.8,0.7,4.5,2.7,3.3c1.9-1.2,1.2-4.1-1-4.1C58.1,93.4,57.4,93.8,57,94.3z"/><path fill="#000000" d="M66.3,94.3c-1.1,1-1.1,1.1-0.3,2.5c0.8,1.3,3.1,1.4,3.9,0.1c0.4-0.8,0.3-1.4-0.3-2.2C68.5,93.2,67.4,93.1,66.3,94.3z"/><path fill="#000000" d="M75.5,94.2c-0.4,0.4-0.6,1.4-0.5,2.1c0.1,1,0.5,1.3,1.8,1.3c2,0,3.1-1.5,2.2-3C78.2,93.4,76.3,93.2,75.5,94.2z"/><path fill="#000000" d="M85.1,93.9c-0.4,0.2-0.7,1.2-0.6,2.1c0.1,1.4,0.4,1.6,1.8,1.6c2,0,3.1-1.5,2.2-3C87.8,93.6,86.1,93.2,85.1,93.9z"/><path fill="#000000" d="M94,94.2c-0.4,0.4-0.6,1.4-0.5,2.1c0.1,1,0.5,1.3,1.8,1.3c2,0,3.1-1.5,2.2-3C96.7,93.4,94.8,93.2,94,94.2z"/><path fill="#000000" d="M103.2,94.7c-0.6,0.8-0.7,1.5-0.3,2.2c0.7,1.3,3.1,1.3,3.9-0.1c0.7-1.4,0.7-1.5-0.3-2.5C105.2,93.1,104.2,93.2,103.2,94.7z"/><path fill="#000000" d="M112.7,94.3c-1.7,1.7-0.4,3.9,2,3.5c1.5-0.2,2.1-2.3,1-3.6C114.8,93.2,113.8,93.2,112.7,94.3z"/><path fill="#000000" d="M121.9,94.2c-0.4,0.4-0.6,1.4-0.5,2.1c0.1,1,0.5,1.3,1.8,1.3c2,0,3.1-1.5,2.2-3C124.7,93.4,122.8,93.2,121.9,94.2z"/><path fill="#000000" d="M130.8,94.3c-1.5,1.8,0.7,4.5,2.7,3.3c1.2-0.8,1.6-3,0.6-3.6C132.9,93.2,131.6,93.3,130.8,94.3z"/><path fill="#000000" d="M140.3,94.3c-1.5,1.8,0.7,4.5,2.7,3.3c1.9-1.2,1.2-4.1-1-4.1C141.4,93.4,140.7,93.8,140.3,94.3z"/><path fill="#000000" d="M149.6,94.3c-1.1,1-1.1,1.1-0.3,2.5c0.8,1.3,3.1,1.4,3.9,0.1c0.4-0.8,0.3-1.4-0.3-2.2C151.8,93.2,150.8,93.1,149.6,94.3z"/><path fill="#000000" d="M158.8,94.2c-0.4,0.4-0.6,1.4-0.5,2.1c0.1,1,0.5,1.3,1.8,1.3c2,0,3.1-1.5,2.2-3C161.6,93.4,159.7,93.2,158.8,94.2z"/><path fill="#000000" d="M168.3,94.2c-1.1,1.3-0.4,3.4,1,3.6c2.5,0.4,3.7-1.8,2-3.5C170.2,93.2,169.2,93.2,168.3,94.2z"/><path fill="#000000" d="M177.2,94.3c-1.5,1.8,0.7,4.5,2.7,3.3c1.9-1.2,1.2-4.1-1-4.1C178.3,93.4,177.6,93.8,177.2,94.3z"/><path fill="#000000" d="M186.5,94.3c-1.1,1-1.1,1.1-0.3,2.5c0.3,0.6,1.2,1.1,2,1.1c1.1,0,2.5-1.3,2.5-2.5c0-0.6-1.8-2-2.5-2C187.7,93.4,187,93.8,186.5,94.3z"/><path fill="#000000" d="M195.7,94.3c-1.5,1.8,0.7,4.5,2.7,3.3c1.9-1.2,1.2-4.1-1-4.1C196.8,93.4,196.1,93.8,195.7,94.3z"/><path fill="#000000" d="M205.2,94.3c-1.5,1.8,0.7,4.5,2.7,3.3c1.9-1.2,1.2-4.1-1-4.1C206.3,93.4,205.6,93.8,205.2,94.3z"/><path fill="#000000" d="M214.3,94.1c-0.4,0.4-0.7,1.1-0.7,1.6c0,2.4,4,3,4.4,0.6C218.3,94,215.9,92.5,214.3,94.1z"/><path fill="#000000" d="M223.8,93.9c-0.4,0.3-0.7,1.2-0.6,2.1c0.1,1.3,0.5,1.7,1.7,1.8c1.1,0.1,1.7-0.2,2.1-1C228.2,94.6,225.9,92.5,223.8,93.9z"/><path fill="#000000" d="M232.6,94.6c-0.5,0.9-0.4,1.4,0.3,2.2c1.2,1.4,2.2,1.3,3.2-0.2c0.6-0.8,0.7-1.5,0.3-2.2C235.7,93,233.4,93.2,232.6,94.6z"/><path fill="#000000" d="M20.5,103c-2.5,1.4-0.2,5.2,2.3,3.9c1.4-0.7,1.5-2.3,0.1-3.5C21.8,102.2,21.8,102.2,20.5,103z"/><path fill="#000000" d="M29.6,103.3c-1.5,1.1-1.5,2-0.1,3.2c1.8,1.6,4.5-0.4,3.4-2.5C32.1,102.6,31,102.4,29.6,103.3z"/><path fill="#000000" d="M39,103c-1.8,1.1-0.7,4.4,1.5,4.4c0.6,0,2-1.8,2-2.5c0-0.8-1.5-2.5-2.1-2.5C40.1,102.4,39.5,102.7,39,103z"/><path fill="#000000" d="M47.8,103.3c-0.5,0.4-0.9,1.2-0.9,1.6c0,0.7,1.5,2.5,2,2.5c1.1,0,2.5-1.4,2.5-2.5c0-0.8-0.4-1.6-1.1-2C48.9,102.2,48.8,102.2,47.8,103.3z"/><path fill="#000000" d="M57.4,103c-2.5,1.4-0.2,5.2,2.4,3.9c1.5-0.8,1.5-3.1,0.1-3.9C58.5,102.3,58.6,102.3,57.4,103z"/><path fill="#000000" d="M66.4,103.6c-1.3,1.3-1.2,2.1,0.4,3.1c1.1,0.7,1.3,0.7,2.3-0.3c1-1,1.1-1.5,0.7-2.2C69,102.5,67.7,102.3,66.4,103.6z"/><path fill="#000000" d="M75.9,103c-1.3,0.8-1.3,3.1,0.1,3.9c2.5,1.3,4.5-1.6,2.5-3.6C77.5,102.2,77.2,102.2,75.9,103z"/><path fill="#000000" d="M85.3,103c-2.2,1.2-0.3,5,2.1,4.1c1-0.4,1.7-2.2,1.2-3C87.9,103,86.3,102.4,85.3,103z"/><path fill="#000000" d="M94.3,103c-2.5,1.4-0.2,5.2,2.3,3.9c1.5-0.8,1.5-3.1,0.1-3.9C95.5,102.3,95.5,102.3,94.3,103z"/><path fill="#000000" d="M103.4,103.5c-1.2,1.2-1,2.5,0.7,3.4c1.6,0.9,3.6-1.1,2.7-2.7C105.9,102.6,104.6,102.3,103.4,103.5z"/><path fill="#000000" d="M112.9,103.4c-2.2,1.8-0.2,4.8,2.3,3.5c1.4-0.8,1.4-3.1,0-3.9C114.4,102.6,113.9,102.7,112.9,103.4z"/><path fill="#000000" d="M122.3,103c-1.8,1.1-0.7,4.4,1.5,4.4c0.6,0,2-1.8,2-2.5c0-0.8-1.5-2.5-2.1-2.5C123.4,102.4,122.8,102.7,122.3,103z"/><path fill="#000000" d="M131.1,103.3c-0.5,0.4-0.9,1.2-0.9,1.6c0,0.7,1.5,2.5,2,2.5c1.1,0,2.5-1.4,2.5-2.5c0-0.8-0.4-1.6-1.1-2C132.3,102.2,132.2,102.2,131.1,103.3z"/><path fill="#000000" d="M140.7,103.3c-2,2,0,4.9,2.5,3.6c1.5-0.8,1.5-3.1,0.1-3.9C141.8,102.2,141.7,102.2,140.7,103.3z"/><path fill="#000000" d="M149.8,103.5c-1.3,1.3-1.4,1.9-0.2,3c1.2,1.2,2.2,1.1,3.2-0.3C154.5,103.9,151.8,101.5,149.8,103.5z"/><path fill="#000000" d="M159.2,103c-1.3,0.8-1.3,3.1,0.1,3.9c2.5,1.3,4.5-1.6,2.5-3.6C160.8,102.2,160.5,102.2,159.2,103z"/><path fill="#000000" d="M168.7,103c-2.2,1.2-0.3,5,2.1,4.1c1-0.4,1.7-2.2,1.2-3C171.2,103,169.7,102.4,168.7,103z"/><path fill="#000000" d="M177.6,103.4c-1.8,2,0.2,4.6,2.5,3.4c1.4-0.8,1.4-3.1,0-3.9C178.7,102.2,178.7,102.2,177.6,103.4z"/><path fill="#000000" d="M186.7,103.5c-1,1-1,1.3-0.6,2.3c1,1.7,2.2,1.9,3.5,0.7c0.9-1,1-1.4,0.5-2.3C189.3,102.5,188,102.3,186.7,103.5z"/><path fill="#000000" d="M196.1,103c-2.5,1.4-0.2,5.2,2.3,3.9c1.5-0.8,1.5-3.1,0.1-3.9C197.3,102.3,197.3,102.3,196.1,103z"/><path fill="#000000" d="M205.6,103c-2.2,1.2-0.3,5,2.1,4.1c1-0.4,1.7-2.2,1.2-3C208.2,103,206.6,102.4,205.6,103z"/><path fill="#000000" d="M214.5,103.3c-0.5,0.4-0.9,1.2-0.9,1.6c0,0.7,1.5,2.5,2,2.5c1.1,0,2.5-1.4,2.5-2.5c0-0.8-0.4-1.6-1.1-2C215.6,102.2,215.5,102.2,214.5,103.3z"/><path fill="#000000" d="M223.7,103.5c-2.1,2.1,0.5,4.8,2.9,2.9c1.4-1.1,1.2-2.5-0.6-3.4C225,102.5,224.6,102.6,223.7,103.5z"/><path fill="#000000" d="M233.1,103.4c-1.4,1.1-1.2,2.5,0.6,3.4c1.6,0.8,3.7-1.2,2.9-2.7C235.7,102.6,234.5,102.3,233.1,103.4z"/><path fill="#000000" d="M20.1,112.7c-1.5,1.8,0.7,4.5,2.7,3.3c1.9-1.2,1.2-4.1-1-4.1C21.2,111.9,20.5,112.3,20.1,112.7z"/><path fill="#000000" d="M29,113c-0.7,1.3,0.1,3.4,1.4,3.4c1.7,0,2.5-0.7,2.5-2.2C32.9,111.8,30.1,111,29,113z"/><path fill="#000000" d="M38.7,112.2c-0.4,0.2-0.7,0.9-0.7,1.6c0,2.5,2.8,3.4,4.1,1.2C43.2,113.3,40.9,111.3,38.7,112.2z"/><path fill="#000000" d="M47.5,112.7c-1.5,1.8,0.7,4.5,2.7,3.3c1.9-1.2,1.2-4.1-1-4.1C48.6,111.9,47.9,112.3,47.5,112.7z"/><path fill="#000000" d="M57,112.7c-1.5,1.8,0.7,4.5,2.7,3.3c1.9-1.2,1.2-4.1-1-4.1C58.1,111.9,57.4,112.3,57,112.7z"/><path fill="#000000" d="M65.9,113c-0.8,1.6,0.2,3.4,2,3.4c1.7,0,2.8-1.8,2-3.4c-0.3-0.7-1.2-1.1-2-1.1C67.1,111.9,66.3,112.3,65.9,113z"/><path fill="#000000" d="M75.4,112.7c-1.5,1.8,0.7,4.5,2.7,3.3c1.9-1.2,1.2-4.1-1-4.1C76.6,111.9,75.8,112.3,75.4,112.7z"/><path fill="#000000" d="M84.8,112.3c-0.2,0.2-0.4,1.1-0.4,1.9c0,1.2,0.3,1.7,1.4,2c2.4,0.6,4.1-1.9,2.4-3.6C87.5,111.8,85.4,111.7,84.8,112.3z"/><path fill="#000000" d="M94.2,112.6c-0.6,0.4-1,1.3-0.8,2.1c0.1,1.1,0.4,1.3,2.1,1.3c1.6,0,2-0.2,2.1-1.3c0.2-1.4-0.7-2.9-1.8-2.9C95.5,111.9,94.8,112.2,94.2,112.6z"/><path fill="#000000" d="M103.2,113.1c-0.6,0.8-0.7,1.5-0.3,2.2c0.7,1.3,3.1,1.3,3.9-0.1c0.7-1.4,0.7-1.5-0.3-2.5C105.2,111.6,104.2,111.7,103.2,113.1z"/><path fill="#000000" d="M112.7,112.8c-1.7,1.7-0.4,3.9,2,3.5c1.5-0.2,2.1-2.3,1-3.6C114.8,111.7,113.8,111.7,112.7,112.8z"/><path fill="#000000" d="M121.9,112.7c-0.3,0.4-0.6,1.4-0.4,2.1c0.1,1,0.6,1.3,2,1.5c1.6,0.2,1.8,0,2.2-1.3C126.2,112.6,123.4,110.9,121.9,112.7z"/><path fill="#000000" d="M131.1,112.6c-2.2,1.6,0.3,5,2.7,3.6c1.6-0.9,0.8-4.4-1.1-4.4C132.4,111.9,131.7,112.2,131.1,112.6z"/><path fill="#000000" d="M140.6,112.6c-0.7,0.6-0.9,1.2-0.6,2.3c0.3,1.3,0.6,1.5,2.2,1.3c1.4-0.1,1.8-0.4,2-1.5c0.2-0.8-0.2-1.7-0.8-2.1C142.1,111.7,141.9,111.7,140.6,112.6z"/><path fill="#000000" d="M149.6,112.8c-1.2,1.2-1,2.3,0.6,3.4c1.1,0.7,1.3,0.7,2.4-0.4c1.1-1.1,1.1-1.3,0.4-2.4C152,111.8,150.8,111.6,149.6,112.8z"/><path fill="#000000" d="M158.8,112.7c-0.3,0.4-0.6,1.4-0.4,2.1c0.1,1,0.6,1.3,2,1.5c1.6,0.2,1.8,0,2.2-1.3C163.1,112.6,160.3,110.9,158.8,112.7z"/><path fill="#000000" d="M168.3,112.7c-1.1,1.3-0.4,3.4,1,3.6c2.5,0.4,3.7-1.8,2-3.5C170.2,111.7,169.2,111.7,168.3,112.7z"/><path fill="#000000" d="M177.5,112.6c-0.7,0.6-0.9,1.2-0.6,2.3c0.3,1.3,0.6,1.5,2.2,1.3c1.4-0.1,1.8-0.4,2-1.5c0.2-0.8-0.2-1.7-0.8-2.1C179,111.7,178.8,111.7,177.5,112.6z"/><path fill="#000000" d="M187,112.3c-1.2,0.8-1.3,2.3-0.2,3.5c1,1,1.3,1.1,2.4,0.3c1.6-1,1.8-2.2,0.7-3.4C188.8,111.8,187.9,111.7,187,112.3z"/><path fill="#000000" d="M195.4,112.7c-0.8,2.2,1.2,4.5,3,3.4c2.1-1.3,1.2-4.1-1.4-4.1C196.2,111.9,195.5,112.2,195.4,112.7z"/><path fill="#000000" d="M204.9,112.7c-0.8,2.2,1.2,4.5,3,3.4c2.1-1.3,1.2-4.1-1.4-4.1C205.8,111.9,205,112.2,204.9,112.7z"/><path fill="#000000" d="M214.1,112.7c-1.5,1.8,0.7,4.5,2.7,3.3c1.9-1.2,1.2-4.1-1-4.1C215.3,111.9,214.5,112.3,214.1,112.7z"/><path fill="#000000" d="M223.2,112.8c-1.1,2,0.7,4.1,2.9,3.2c2.2-0.8,1.3-4.1-1-4.1C224.3,111.9,223.5,112.3,223.2,112.8z"/><path fill="#000000" d="M29,122.5c-0.9,1.8,0.2,3.5,2.1,3.3c1.3-0.2,1.5-0.4,1.5-2.1c0-1.7-0.2-2-1.5-2.1C30.1,121.4,29.5,121.7,29,122.5z"/><path fill="#000000" d="M38.2,122.2c-0.2,0.4-0.2,1.4-0.1,2.1c0.1,1,0.5,1.3,1.8,1.3c2,0,3.1-1.5,2.2-3C41.3,121.4,38.6,121.1,38.2,122.2z"/><path fill="#000000" d="M47.6,122.1c-1.5,1.5-0.3,3.8,2,3.8c1.3,0,2.2-2,1.6-3.6C50.8,121.2,48.5,121.1,47.6,122.1z"/><path fill="#000000" d="M57,122.2c-1.5,1.8,0.7,4.5,2.7,3.3c1.9-1.2,1.2-4.1-1-4.1C58.1,121.4,57.4,121.8,57,122.2z"/><path fill="#000000" d="M65.9,122.5c-0.8,1.6,0.2,3.4,2,3.4c1.7,0,2.6-1.5,1.9-3.2C69.2,121.1,66.8,121,65.9,122.5z"/><path fill="#000000" d="M75.1,122.7c-0.5,2.2,0.1,3.2,1.8,3c3.2-0.4,3.2-3.9,0.1-4.3C75.8,121.3,75.4,121.6,75.1,122.7z"/><path fill="#000000" d="M84.8,121.8c-0.7,0.7-0.4,2.8,0.4,3.5c1.8,1.5,4.6-1.3,3.1-3.1C87.6,121.4,85.4,121.1,84.8,121.8z"/><path fill="#000000" d="M93.6,122.2c-0.5,1.3-0.1,2.7,1.1,3.4c1.4,0.9,2.9-0.2,2.9-2.2c0-1.4-0.2-1.6-1.8-1.8C94.5,121.4,93.8,121.6,93.6,122.2z"/><path fill="#000000" d="M102.8,122.6c-0.5,1-0.4,1.4,0.5,2.3c2,2,4.8,0.1,3.5-2.4C106,121,103.6,121.1,102.8,122.6z"/><path fill="#000000" d="M112.4,122.5c-0.8,1.4-0.3,2.7,1.1,3.1c1.5,0.5,2.9-0.7,2.6-2.5C115.9,121.2,113.3,120.7,112.4,122.5z"/><path fill="#000000" d="M121.5,122.2c-0.8,2.2,1.2,4.5,3,3.4c2.1-1.3,1.2-4.1-1.4-4.1C122.4,121.4,121.7,121.7,121.5,122.2z"/><path fill="#000000" d="M130.9,122.2c-0.9,1.1-0.3,3,1.1,3.4c1.5,0.5,2.9-0.7,2.6-2.5c-0.1-1.1-0.5-1.5-1.6-1.6C132.2,121.4,131.3,121.7,130.9,122.2z"/><path fill="#000000" d="M140.4,122.1c-1.8,1.8,1,4.9,3,3.2c1.6-1.3,0.7-3.9-1.4-3.9C141.5,121.4,140.8,121.7,140.4,122.1z"/><path fill="#000000" d="M149.3,122.5c-0.7,1.3-0.2,2.7,1.1,3.1c2.1,0.7,3.8-1.3,2.7-3.3C152.4,121.1,150,121.2,149.3,122.5z"/><path fill="#000000" d="M158.4,122.2c-0.8,2.2,1.2,4.5,3,3.4c2.1-1.3,1.2-4.1-1.4-4.1C159.3,121.4,158.6,121.7,158.4,122.2z"/><path fill="#000000" d="M168.1,121.8c-0.7,0.7-0.4,2.8,0.4,3.5c0.4,0.3,1.3,0.5,1.9,0.3c1.4-0.4,2-2.3,1.2-3.4C170.9,121.4,168.8,121.1,168.1,121.8z"/><path fill="#000000" d="M177.3,122.1c-1.8,1.8,1,4.9,3,3.2c1.6-1.3,0.7-3.9-1.4-3.9C178.4,121.4,177.7,121.7,177.3,122.1z"/><path fill="#000000" d="M186.2,122.5c-1.1,2,0.8,3.9,3,3.1c2.2-0.8,1.3-4.1-1-4.1C187.4,121.4,186.5,121.8,186.2,122.5z"/><path fill="#000000" d="M195.4,122.2c-0.5,1.3-0.1,2.7,1.1,3.4c1.4,0.9,2.9-0.2,2.9-2.2c0-1.4-0.2-1.6-1.8-1.8C196.2,121.4,195.6,121.6,195.4,122.2z"/><path fill="#000000" d="M205,121.8c-0.7,0.7-0.4,2.8,0.4,3.5c1.1,0.8,2.9,0.2,3.4-1.2c0.2-0.6,0.1-1.5-0.3-1.9C207.8,121.4,205.7,121.1,205,121.8z"/><path fill="#000000" d="M214.2,122.2c-0.9,1.1-0.3,3,1.1,3.4c1.5,0.5,2.9-0.7,2.6-2.5c-0.1-1.1-0.5-1.5-1.6-1.6C215.5,121.4,214.6,121.7,214.2,122.2z"/><path fill="#000000" d="M223.1,122.5c-0.8,1.6,1.2,4,2.6,3.1c1.7-1,2.2-2.2,1.4-3.2C226.1,121.1,223.8,121.2,223.1,122.5z"/><path fill="#000000" d="M29.4,131.2c-1.1,1.1-1.1,1.4-0.2,2.7c1.1,1.5,3.4,1,3.6-0.7C33.2,130.8,31,129.5,29.4,131.2z"/><path fill="#000000" d="M38.6,131.1c-0.4,0.4-0.6,1.4-0.5,2.1c0.1,1,0.5,1.3,1.8,1.3c2,0,3.1-1.5,2.2-3C41.3,130.4,39.4,130.1,38.6,131.1z"/><path fill="#000000" d="M47.5,131.2c-1.5,1.8,0.7,4.5,2.7,3.3c1.9-1.2,1.2-4.1-1-4.1C48.6,130.4,47.9,130.7,47.5,131.2z"/><path fill="#000000" d="M57,131.2c-1.5,1.8,0.7,4.5,2.7,3.3c1.9-1.2,1.2-4.1-1-4.1C58.1,130.4,57.4,130.7,57,131.2z"/><path fill="#000000" d="M66.3,131.4c-1.3,1.4-0.3,3.4,1.6,3.4c1.8,0,2.7-1.7,1.6-3.2C68.4,130.1,67.5,130,66.3,131.4z"/><path fill="#000000" d="M75.5,131.1c-0.4,0.4-0.6,1.4-0.5,2.1c0.1,1,0.5,1.3,1.8,1.3c2,0,3.1-1.5,2.2-3C78.2,130.4,76.3,130.1,75.5,131.1z"/><path fill="#000000" d="M84.9,131.1c-1.1,1.4-0.4,3.4,1.2,3.6c2,0.2,3.1-1.2,2.3-3C87.7,130.2,86,129.9,84.9,131.1z"/><path fill="#000000" d="M94,131c-1.9,1.9,0.3,5,2.7,3.8c2-1.1,1.1-4.5-1.1-4.5C95.1,130.4,94.4,130.6,94,131z"/><path fill="#000000" d="M103.2,131.6c-1.7,2.4,1.3,5,3.1,2.7c1.2-1.6,1.2-2,0.1-3.1C105.2,130,104.2,130.1,103.2,131.6z"/><path fill="#000000" d="M112.7,131.2c-1.1,1.1-1.1,2.1,0,3.3c1.1,1.1,2.3,0.9,3.4-0.6c0.7-1,0.6-1.3-0.1-2.4C114.9,130.1,113.9,130,112.7,131.2z"/><path fill="#000000" d="M122,131c-0.9,0.9-0.8,3,0.2,3.8c1.1,1,3,0.2,3.4-1.5C126.2,131,123.6,129.3,122,131z"/><path fill="#000000" d="M130.8,131.2c-0.8,1-0.3,3.4,0.9,3.9c1.3,0.5,3-0.7,3-2.1C134.7,130.6,132.3,129.5,130.8,131.2z"/><path fill="#000000" d="M140.3,131.2c-0.4,0.4-0.6,1.4-0.3,2.2c0.7,2.7,4.3,2.3,4.3-0.4C144.2,130.6,141.7,129.5,140.3,131.2z"/><path fill="#000000" d="M149.6,131.2c-1.1,1.1-1.1,1.5,0.1,3.1c1.8,2.2,4.8-0.3,3.1-2.7C151.8,130.1,150.8,130,149.6,131.2z"/><path fill="#000000" d="M158.9,131c-0.9,0.9-0.8,3,0.2,3.8c1.1,1,3,0.2,3.4-1.5C163.1,131,160.6,129.3,158.9,131z"/><path fill="#000000" d="M168.4,131c-1.3,1.3-0.4,4.4,1.3,4.4c1,0,2.5-1.6,2.5-2.5s-1.5-2.5-2.5-2.5C169.4,130.4,168.8,130.6,168.4,131z"/><path fill="#000000" d="M177.5,131.1c-1.3,1-0.8,3.5,0.9,4c2.2,0.7,3.7-2.4,2.1-4.1C179.6,130.1,178.8,130.2,177.5,131.1z"/><path fill="#000000" d="M186.5,131.2c-0.5,0.4-0.9,1.1-0.9,1.2c0,0.9,1.8,2.9,2.5,2.9s2.5-2,2.5-2.9c0-0.7-1.7-2.1-2.5-2.1C187.7,130.4,187,130.7,186.5,131.2z"/><path fill="#000000" d="M195.7,131.1c-0.4,0.6-0.6,1.5-0.4,2.4c0.3,1.1,0.7,1.4,1.8,1.2c0.8-0.1,1.7-0.6,2.1-1.2C200.6,131.5,197.3,129.3,195.7,131.1z"/><path fill="#000000" d="M205.2,131.2c-1.5,1.8,0.7,4.5,2.7,3.3c1.9-1.2,1.2-4.1-1-4.1C206.3,130.4,205.6,130.7,205.2,131.2z"/><path fill="#000000" d="M214.3,131c-1.6,1.6-0.1,4,2.2,3.7c2.3-0.3,1.8-4.4-0.6-4.4C215.4,130.4,214.6,130.6,214.3,131z"/><path fill="#000000" d="M223.9,130.8c-1,0.6-1.2,2-0.7,3c0.7,1.3,3.1,1.3,3.8-0.1C228.1,131.6,225.9,129.5,223.9,130.8z"/><path fill="#000000" d="M85.3,139.9c-2.1,1.2-0.5,4.9,1.8,4.1c1.2-0.3,2-2.1,1.5-3.1C87.9,139.9,86.3,139.4,85.3,139.9z"/><path fill="#000000" d="M196.1,140c-1.3,0.7-1.2,3.1,0.2,3.8c1.7,0.9,3.5-0.2,3.2-2.1C199.3,140.1,197.5,139.1,196.1,140z"/><path fill="#000000" d="M205.6,139.9c-2.2,1.2-0.3,5,2.1,4.1c1-0.4,1.7-2.2,1.2-3C208.2,139.9,206.6,139.4,205.6,139.9z"/><path fill="#000000" d="M215.2,139.7c-2,0.5-1.8,3.7,0.2,4.4c1.5,0.5,2.7-0.6,2.7-2.3C218.1,140.4,216.7,139.4,215.2,139.7z"/><path fill="#000000" d="M223.7,140.4c-1,1-1,1.3-0.6,2.3c1,1.7,2.2,1.9,3.5,0.7c0.9-1,1-1.4,0.5-2.3C226.2,139.4,224.9,139.2,223.7,140.4z"/><path fill="#000000" d="M29,141c-0.7,1.3,0.1,3.4,1.4,3.4c1.7,0,2.5-0.7,2.5-2.2C32.9,139.7,30.1,139,29,141z"/><path fill="#000000" d="M38.7,140.3c-0.4,0.1-0.7,1-0.7,1.9c0,1.2,0.3,1.7,1.4,2c1.6,0.4,3.1-0.6,3.1-2C42.4,140.3,40.6,139.4,38.7,140.3z"/><path fill="#000000" d="M47.5,140.7c-1.5,1.8,0.7,4.5,2.7,3.3c1.2-0.8,1.6-3,0.6-3.6C49.6,139.6,48.3,139.7,47.5,140.7z"/><path fill="#000000" d="M57,140.7c-1.5,1.8,0.7,4.5,2.7,3.3c1.9-1.2,1.2-4.1-1-4.1C58.1,139.9,57.4,140.3,57,140.7z"/><path fill="#000000" d="M65.9,141c-0.4,0.8-0.4,1.5,0,2.2c0.8,1.5,3.1,1.5,3.9,0.1c0.7-1.4,0.7-1.5-0.3-2.5C68.3,139.5,66.7,139.6,65.9,141z"/><path fill="#000000" d="M75.5,140.4c-0.4,0.2-0.7,1.2-0.6,2.1c0.1,1.4,0.4,1.6,1.8,1.6c2,0,3.1-1.5,2.2-3C78.3,140,76.6,139.6,75.5,140.4z"/><path fill="#000000" d="M94,140.4c-0.4,0.2-0.7,1.2-0.6,2.1c0.1,1.4,0.4,1.6,1.8,1.6c2,0,3.1-1.5,2.2-3C96.7,140,95.1,139.6,94,140.4z"/><path fill="#000000" d="M103.2,140.8c-1.1,1-1.1,1.1-0.3,2.5c0.8,1.4,3.1,1.4,3.9-0.1C108,140.8,105.1,138.7,103.2,140.8z"/><path fill="#000000" d="M112.4,141c-0.9,1.7,0.2,3.5,2.1,3.2c1.2-0.1,1.6-0.5,1.7-1.8C116.4,139.9,113.5,138.8,112.4,141z"/><path fill="#000000" d="M122,140.4c-0.4,0.2-0.7,1.2-0.6,2.1c0.1,1.4,0.4,1.6,1.8,1.6c2,0,3.1-1.5,2.2-3C124.7,140,123,139.6,122,140.4z"/><path fill="#000000" d="M130.9,140.6c-0.9,1.1-0.6,2.6,0.7,3.4c1.4,0.9,2.9-0.2,2.9-2.2c0-1.3-0.3-1.7-1.5-1.8C132.2,139.9,131.3,140.2,130.9,140.6z"/><path fill="#000000" d="M140.3,140.7c-1.5,1.8,0.7,4.5,2.7,3.3c1.9-1.2,1.2-4.1-1-4.1C141.4,139.9,140.7,140.3,140.3,140.7z"/><path fill="#000000" d="M149.3,141c-0.4,0.8-0.4,1.5,0,2.2c0.8,1.5,3.1,1.5,3.9,0.1c0.7-1.4,0.7-1.5-0.3-2.5C151.7,139.5,150,139.6,149.3,141z"/><path fill="#000000" d="M158.9,140.4c-0.4,0.2-0.7,1.2-0.6,2.1c0.1,1.4,0.4,1.6,1.8,1.6c2,0,3.1-1.5,2.2-3C161.6,140,159.9,139.6,158.9,140.4z"/><path fill="#000000" d="M168.4,140.3c-0.4,0.1-0.7,1-0.7,1.9c0,1.2,0.3,1.7,1.4,2c1.6,0.4,3.1-0.6,3.1-2C172.2,140.3,170.4,139.4,168.4,140.3z"/><path fill="#000000" d="M177.2,140.7c-1.5,1.8,0.7,4.5,2.7,3.3c1.9-1.2,1.2-4.1-1-4.1C178.3,139.9,177.6,140.3,177.2,140.7z"/><path fill="#000000" d="M186.2,141c-0.8,1.6,0.2,3.4,2,3.4s2.8-1.8,2-3.4c-0.3-0.7-1.2-1.1-2-1.1C187.4,139.9,186.5,140.3,186.2,141z"/><path fill="#000000" d="M29.4,149.7c-1.2,1.2-1.1,2.2,0.3,3.2c0.8,0.6,1.5,0.7,2.2,0.3c1.3-0.7,1.3-3.1-0.1-3.9C30.5,148.6,30.4,148.6,29.4,149.7z"/><path fill="#000000" d="M39,149.4c-1.3,0.7-1.3,3.1,0,3.8c0.8,0.4,1.4,0.3,2.2-0.3c1.5-1.1,1.6-2.8,0.2-3.6C40.1,148.7,40.1,148.7,39,149.4z"/><path fill="#000000" d="M47.8,149.5c-2.2,1.6,0.3,5,2.7,3.6c1.2-0.7,1.1-3.1-0.2-3.8C48.9,148.6,49,148.6,47.8,149.5z"/><path fill="#000000" d="M57.3,149.5c-1.2,0.9-0.8,3.4,0.6,4c2.4,1,4.3-2.9,2-4.1C58.4,148.6,58.5,148.6,57.3,149.5z"/><path fill="#000000" d="M66.3,149.9c-1.1,1.2-0.7,2.6,0.8,3.5c0.8,0.4,1.3,0.3,2.2-0.6c1.2-1.2,1-2.5-0.6-3.4C67.4,148.6,67.4,148.6,66.3,149.9z"/><path fill="#000000" d="M75.9,149.4c-1.3,0.7-1.3,3.1-0.1,3.7c2.4,1.3,4.9-2,2.7-3.6C77.3,148.7,77.1,148.6,75.9,149.4z"/><path fill="#000000" d="M85.4,149.4c-1.3,0.7-1.3,3.1,0,3.8c0.8,0.4,1.4,0.3,2.2-0.3c1.5-1,1.6-2.1,0.3-3.2C87,148.6,86.7,148.6,85.4,149.4z"/><path fill="#000000" d="M94.3,149.4c-2.5,1.4-0.2,5.2,2.3,3.9c1.5-0.8,1.5-3.1,0.1-3.9C95.5,148.7,95.5,148.7,94.3,149.4z"/><path fill="#000000" d="M103.5,149.9c-1.3,1.3-1.1,2.6,0.6,3.5c0.8,0.4,1.3,0.3,2.2-0.7c1-1,1.1-1.3,0.3-2.3C105.5,148.7,104.7,148.6,103.5,149.9z"/><path fill="#000000" d="M112.7,149.8c-1.2,1.4-1.2,2.1,0.3,3.1c0.8,0.6,1.5,0.7,2.2,0.3c1.3-0.7,1.3-3.1-0.1-3.9C113.8,148.6,113.8,148.6,112.7,149.8z"/><path fill="#000000" d="M122.3,149.4c-2.1,1.2-0.5,4.8,1.8,4c1.8-0.6,2.2-2.4,0.8-3.7C123.9,148.6,123.6,148.6,122.3,149.4z"/><path fill="#000000" d="M131.1,149.7c-1.2,1.2-1.1,2.2,0.3,3.2c0.8,0.6,1.5,0.7,2.2,0.3c1.3-0.7,1.3-3.1-0.1-3.9C132.3,148.6,132.2,148.6,131.1,149.7z"/><path fill="#000000" d="M140.7,149.7c-1.2,1.2-1.1,2.1,0.2,3.2c0.8,0.8,1.3,0.8,2.2,0.3c1.5-0.8,1.6-3.1,0.1-3.9C141.8,148.6,141.7,148.6,140.7,149.7z"/><path fill="#000000" d="M149.6,149.9c-1.1,1.2-0.7,2.6,0.8,3.5c0.8,0.4,1.3,0.3,2.2-0.6c1.2-1.2,1-2.5-0.6-3.4C150.7,148.6,150.7,148.6,149.6,149.9z"/><path fill="#000000" d="M159.2,149.4c-2.1,1.2-0.5,4.8,1.8,4c1.8-0.6,2.2-2.4,0.8-3.7C160.8,148.6,160.5,148.6,159.2,149.4z"/><path fill="#000000" d="M168.7,149.4c-1.3,0.7-1.3,3.1,0,3.8c0.8,0.4,1.4,0.3,2.2-0.3c1.5-1.1,1.6-2,0.2-3.2C170,148.6,170,148.6,168.7,149.4z"/><path fill="#000000" d="M177.6,149.7c-1.2,1.2-1.1,2.2,0.3,3.2c0.8,0.6,1.5,0.7,2.2,0.3c1.3-0.7,1.3-3.1-0.1-3.9C178.7,148.6,178.6,148.6,177.6,149.7z"/><path fill="#000000" d="M186.6,150c-1,1.3-0.7,2.5,0.8,3.4c0.8,0.4,1.3,0.3,2.2-0.7c1-1,1.1-1.3,0.3-2.3C188.8,148.6,187.6,148.5,186.6,150z"/><path fill="#000000" d="M196.1,149.4c-2.5,1.4-0.2,5.2,2.3,3.9c1.5-0.8,1.5-3.1,0.1-3.9C197.3,148.7,197.3,148.7,196.1,149.4z"/><path fill="#000000" d="M205.6,149.4c-1.8,1.1-0.7,4.4,1.5,4.4c0.6,0,2-1.8,2-2.5c0-0.8-1.5-2.5-2.1-2.5C206.8,148.8,206.1,149.1,205.6,149.4z"/><path fill="#000000" d="M214.5,149.7c-1.4,1.3-1,3.1,0.8,3.7c2.4,0.8,3.9-2.8,1.7-4C215.6,148.6,215.5,148.6,214.5,149.7z"/><path fill="#000000" d="M223.4,150c-1.5,2.2,0.7,4.5,2.9,3c1.5-1,1.6-2.1,0.3-3.2C225.5,148.5,224.4,148.6,223.4,150z"/><path fill="#000000" d="M38.4,158.7c-0.7,0.7-0.4,2.8,0.4,3.5c1.8,1.5,4.6-1.3,3.1-3.1C41.2,158.3,39,158,38.4,158.7z"/><path fill="#000000" d="M47.5,159.1c-0.9,1.1-0.6,2.6,0.7,3.4c1.4,0.9,2.9-0.2,2.9-2.2c0-1.3-0.3-1.7-1.5-1.8C48.9,158.3,47.9,158.7,47.5,159.1z"/><path fill="#000000" d="M57,159.2c-1.5,1.8,0.7,4.5,2.7,3.3c1.9-1.2,1.2-4.1-1-4.1C58.1,158.3,57.4,158.7,57,159.2z"/><path fill="#000000" d="M65.9,159.4c-0.7,1.3-0.2,2.7,1.1,3.1c2.1,0.7,3.8-1.3,2.7-3.3C69.1,158,66.7,158.1,65.9,159.4z"/><path fill="#000000" d="M75.1,159.1c-0.8,2.2,1.2,4.5,3,3.4c2.1-1.3,1.2-4.1-1.4-4.1C76,158.3,75.3,158.7,75.1,159.1z"/><path fill="#000000" d="M84.8,158.7c-0.6,0.6-0.4,2.7,0.3,3.4c1.8,1.8,4.9-1,3.2-3C87.6,158.3,85.4,158,84.8,158.7z"/><path fill="#000000" d="M94.1,158.7c-0.9,0.3-1,2.5-0.1,3.4c1.7,1.7,4.2,0,3.6-2.4C97.3,158.4,95.9,157.9,94.1,158.7z"/><path fill="#000000" d="M102.8,159.4c-1.1,2,0.8,3.9,3,3.1c2.2-0.8,1.3-4.1-1-4.1C104,158.3,103.2,158.8,102.8,159.4z"/><path fill="#000000" d="M112.4,159.4c-1.2,2.2,1.1,4.3,3.2,2.9c0.4-0.3,0.7-1.2,0.6-2.1c-0.1-1.3-0.5-1.7-1.7-1.8C113.4,158.3,112.8,158.6,112.4,159.4z"/><path fill="#000000" d="M121.7,158.7c-0.2,0.2-0.4,1.1-0.4,1.9c0,1.2,0.3,1.7,1.4,2c2.4,0.6,4.1-1.9,2.4-3.6C124.4,158.3,122.3,158.1,121.7,158.7z"/><path fill="#000000" d="M130.9,159.1c-0.9,1.1-0.6,2.6,0.7,3.4c1.4,0.9,2.9-0.2,2.9-2.2c0-1.3-0.3-1.7-1.5-1.8C132.2,158.3,131.3,158.7,130.9,159.1z"/><path fill="#000000" d="M140.3,159.2c-1.5,1.8,0.7,4.5,2.7,3.3c1.9-1.2,1.2-4.1-1-4.1C141.4,158.3,140.7,158.7,140.3,159.2z"/><path fill="#000000" d="M149.3,159.4c-1.1,2.1,1.1,4.3,3.1,2.9c1-0.6,1.2-2,0.7-3.1C152.4,158,150,158,149.3,159.4z"/><path fill="#000000" d="M158.4,159.1c-0.8,2.2,1.2,4.5,3,3.4c2.1-1.3,1.2-4.1-1.4-4.1C159.3,158.3,158.6,158.7,158.4,159.1z"/><path fill="#000000" d="M168.1,158.7c-0.7,0.7-0.4,2.8,0.4,3.5c1.8,1.5,4.6-1.3,3.1-3.1C170.9,158.3,168.8,158,168.1,158.7z"/><path fill="#000000" d="M177.2,159.2c-1.5,1.8,0.7,4.5,2.7,3.3c1.9-1.2,1.2-4.1-1-4.1C178.3,158.3,177.6,158.7,177.2,159.2z"/><path fill="#000000" d="M186.2,159.4c-1.3,2.5,1.6,4.5,3.6,2.5c1.1-1,1.1-1.1,0.3-2.5C189.3,158,187,158,186.2,159.4z"/><path fill="#000000" d="M195.7,159.2c-1.5,1.8,0.7,4.5,2.7,3.3c1.9-1.2,1.2-4.1-1-4.1C196.8,158.3,196.1,158.7,195.7,159.2z"/><path fill="#000000" d="M205,158.7c-0.7,0.7-0.4,2.8,0.4,3.5c1.8,1.5,4.6-1.3,3.1-3.1C207.8,158.3,205.7,158,205,158.7z"/><path fill="#000000" d="M214.2,159.1c-0.9,1.1-0.6,2.6,0.7,3.4c1.4,0.9,2.9-0.2,2.9-2.2c0-1.3-0.3-1.7-1.5-1.8C215.5,158.3,214.6,158.7,214.2,159.1z"/><path fill="#000000" d="M223.2,159.2c-1.4,2.5,1.4,4.6,3.4,2.6c0.9-0.9,1-1.3,0.5-2.3C226.3,158.1,223.9,157.9,223.2,159.2z"/><path fill="#000000" d="M232.6,159.4c-0.8,1.6,0.2,3.4,2,3.4c1.7,0,2.6-1.5,1.9-3.2C235.8,158,233.4,157.9,232.6,159.4z"/><path fill="#000000" d="M29.4,168.2c-1.1,1.1-1.1,1.4-0.2,2.7c1.1,1.5,3.4,1,3.6-0.7C33.2,167.7,31,166.4,29.4,168.2z"/><path fill="#000000" d="M38.6,168c-0.4,0.4-0.6,1.4-0.5,2.1c0.1,1,0.5,1.3,1.8,1.3c2,0,3.1-1.5,2.2-3C41.3,167.3,39.4,167,38.6,168z"/><path fill="#000000" d="M47.5,168.1c-1.5,1.8,0.7,4.5,2.7,3.3c1.9-1.2,1.2-4.1-1-4.1C48.6,167.3,47.9,167.7,47.5,168.1z"/><path fill="#000000" d="M57,168.1c-1.5,1.8,0.7,4.5,2.7,3.3c1.9-1.2,1.2-4.1-1-4.1C58.1,167.3,57.4,167.7,57,168.1z"/><path fill="#000000" d="M66.3,168.3c-1.3,1.4-0.3,3.4,1.6,3.4c1.8,0,2.7-1.7,1.6-3.2C68.4,167,67.5,166.9,66.3,168.3z"/><path fill="#000000" d="M75.5,168c-0.4,0.4-0.6,1.4-0.5,2.1c0.1,1,0.5,1.3,1.8,1.3c2,0,3.1-1.5,2.2-3C78.2,167.3,76.3,167,75.5,168z"/><path fill="#000000" d="M85.1,167.9c-1.3,1.3-0.4,4.4,1.3,4.4c1,0,2.5-1.6,2.5-2.5s-1.5-2.5-2.5-2.5C86.1,167.3,85.4,167.5,85.1,167.9z"/><path fill="#000000" d="M93.9,168c-0.3,0.4-0.6,1.4-0.4,2.1c0.1,1.1,0.5,1.3,2.1,1.3c1.6,0,2-0.2,2.1-1.3c0.2-1.6-0.8-2.9-2.1-2.9C95,167.3,94.3,167.7,93.9,168z"/><path fill="#000000" d="M103.2,168.3c-0.8,0.8-0.8,1.3-0.3,2.2c0.8,1.5,3.1,1.6,3.9,0.1c0.7-1.4,0.7-1.5-0.3-2.5C105.2,167,104.4,167,103.2,168.3z"/><path fill="#000000" d="M112.7,168.2c-1.1,1.1-1.1,2.1-0.1,3c1.3,1.1,3.4,0.4,3.6-1C116.5,167.7,114.4,166.4,112.7,168.2z"/><path fill="#000000" d="M121.9,168c-0.4,0.4-0.6,1.4-0.5,2.1c0.1,1,0.5,1.3,1.8,1.3c2,0,3.1-1.5,2.2-3C124.7,167.3,122.8,167,121.9,168z"/><path fill="#000000" d="M130.9,167.9c-1.6,1.6-0.1,4,2.2,3.7c2.3-0.3,1.8-4.4-0.6-4.4C132,167.3,131.3,167.5,130.9,167.9z"/><path fill="#000000" d="M140.8,167.9c-2.1,1.2-0.6,4.1,1.9,3.7c1.5-0.2,2.1-2.3,1-3.6C142.9,167.2,142.1,167.1,140.8,167.9z"/><path fill="#000000" d="M149.6,168.2c-1.1,1-1.1,1.1-0.3,2.5c0.8,1.3,3.1,1.4,3.9,0.1c0.4-0.8,0.3-1.4-0.3-2.2C151.8,167,150.8,166.9,149.6,168.2z"/><path fill="#000000" d="M158.8,168c-0.3,0.4-0.6,1.4-0.4,2.1c0.1,1,0.6,1.3,2,1.5c1.6,0.2,1.8-0.1,2.2-1.3C163.1,167.8,160.4,166.1,158.8,168z"/><path fill="#000000" d="M168.3,168c-1.1,1.3-0.4,3.4,1,3.6c2.5,0.4,3.7-1.8,2-3.5C170.2,167,169.2,167,168.3,168z"/><path fill="#000000" d="M177.6,168.2c-1.7,1.7-0.4,3.9,2,3.5c1.5-0.2,2.1-2.3,1-3.6C179.7,167,178.6,167,177.6,168.2z"/><path fill="#000000" d="M186.5,168.2c-1.1,1-1.1,1.1-0.3,2.5c0.3,0.6,1.2,1.1,2,1.1c1.1,0,2.5-1.3,2.5-2.5c0-0.6-1.8-2-2.5-2C187.7,167.3,187,167.7,186.5,168.2z"/><path fill="#000000" d="M195.7,168c-0.4,0.4-0.6,1.4-0.5,2.1c0.1,1,0.5,1.3,1.8,1.3c2,0,3.1-1.5,2.2-3C198.5,167.3,196.6,167,195.7,168z"/><path fill="#000000" d="M205.2,168c-1.1,1.3-0.4,3.4,1,3.6c2.5,0.4,3.7-1.8,2-3.5C207.2,167,206.1,167,205.2,168z"/><path fill="#000000" d="M214.3,167.9c-1.6,1.6-0.1,4,2.2,3.7c2.3-0.3,1.8-4.4-0.6-4.4C215.4,167.3,214.6,167.5,214.3,167.9z"/><path fill="#000000" d="M223.4,168.5c-0.6,0.8-0.7,1.5-0.3,2.2c0.7,1.3,3.1,1.3,3.9-0.1c0.7-1.4,0.7-1.5-0.3-2.5C225.5,166.9,224.4,167,223.4,168.5z"/><path fill="#000000" d="M232.9,168.2c-1.1,1-1.1,1.1-0.3,2.5c0.8,1.3,3.1,1.4,3.9,0.1c0.4-0.8,0.3-1.4-0.3-2.2C235.2,167,234.1,166.9,232.9,168.2z"/><path fill="#000000" d="M242.2,168c-0.4,0.4-0.6,1.4-0.5,2.1c0.1,1,0.5,1.3,1.8,1.3c2,0,3.1-1.5,2.2-3C244.9,167.3,243,167,242.2,168z"/><path fill="#000000" d="M57,177.6c-1.5,1.8,0.7,4.5,2.7,3.3c1.9-1.2,1.2-4.1-1-4.1C58.1,176.8,57.4,177.2,57,177.6z"/><path fill="#000000" d="M66.3,177.7c-1.1,1-1.1,1.1-0.3,2.5c0.3,0.6,1.2,1.1,2,1.1c1.1,0,2.5-1.3,2.5-2.5c0-0.6-1.8-2-2.5-2C67.5,176.8,66.7,177.2,66.3,177.7z"/><path fill="#000000" d="M75.4,177.6c-1.5,1.8,0.7,4.5,2.7,3.3c1.9-1.2,1.2-4.1-1-4.1C76.6,176.8,75.8,177.2,75.4,177.6z"/><path fill="#000000" d="M85,177.6c-0.4,0.4-0.6,1.4-0.5,2.1c0.1,1,0.5,1.3,1.8,1.3c2,0,3.1-1.5,2.2-3C87.7,176.8,85.8,176.5,85,177.6z"/><path fill="#000000" d="M94,177.4c-0.4,0.4-0.7,1.2-0.7,2c0,1.5,2.3,2.3,3.6,1.3c1.6-1.3,0.6-3.9-1.4-3.9C95.1,176.8,94.4,177.1,94,177.4z"/><path fill="#000000" d="M103.2,177.8c-1.3,1.4-0.3,3.4,1.6,3.4c1.7,0,2.8-1.8,2-3.4C106,176.5,104.4,176.4,103.2,177.8z"/><path fill="#000000" d="M112.4,177.9c-0.9,1.7,0.2,3.5,2.1,3.2c1.2-0.1,1.6-0.5,1.7-1.8C116.4,176.8,113.5,175.7,112.4,177.9z"/><path fill="#000000" d="M121.9,177.6c-0.4,0.4-0.6,1.4-0.5,2.1c0.1,1,0.5,1.3,1.8,1.3c2,0,3.1-1.5,2.2-3C124.7,176.8,122.8,176.5,121.9,177.6z"/><path fill="#000000" d="M130.9,177.4c-1.7,1.7,0,4.2,2.4,3.6c2.3-0.6,1.6-4.3-0.8-4.3C132,176.8,131.3,177.1,130.9,177.4z"/><path fill="#000000" d="M140.4,177.4c-1.6,1.6-0.1,4,2.2,3.7c2.3-0.3,1.8-4.4-0.6-4.4C141.5,176.8,140.8,177.1,140.4,177.4z"/><path fill="#000000" d="M149.3,177.9c-0.4,0.8-0.4,1.5,0,2.2c0.8,1.5,3.1,1.5,3.9,0.1c0.7-1.4,0.7-1.5-0.3-2.5C151.7,176.4,150,176.5,149.3,177.9z"/><path fill="#000000" d="M158.8,177.6c-0.4,0.4-0.6,1.4-0.5,2.1c0.1,1,0.5,1.3,1.8,1.3c2,0,3.1-1.5,2.2-3C161.6,176.8,159.7,176.5,158.8,177.6z"/><path fill="#000000" d="M168.3,177.6c-1.5,1.8,0.7,4.5,2.7,3.3c1.9-1.2,1.2-4.1-1-4.1C169.4,176.8,168.7,177.2,168.3,177.6z"/><path fill="#000000" d="M177.3,177.4c-1.6,1.6-0.1,4,2.2,3.7c2.3-0.3,1.8-4.4-0.6-4.4C178.5,176.8,177.7,177.1,177.3,177.4z"/><path fill="#000000" d="M186.5,177.7c-1.1,1-1.1,1.1-0.3,2.5c0.8,1.4,3.1,1.4,3.9-0.1C191.4,177.7,188.5,175.7,186.5,177.7z"/><path fill="#000000" d="M195.7,177.6c-0.4,0.4-0.6,1.4-0.5,2.1c0.1,1,0.5,1.3,1.8,1.3c2,0,3.1-1.5,2.2-3C198.5,176.8,196.6,176.5,195.7,177.6z"/><path fill="#000000" d="M205.3,177.3c-0.4,0.2-0.7,1.2-0.6,2.1c0.1,1.4,0.4,1.6,1.8,1.6c2,0,3.1-1.5,2.2-3C208,176.9,206.4,176.5,205.3,177.3z"/><path fill="#000000" d="M214.3,177.4c-1.6,1.6-0.1,4,2.2,3.7c2.3-0.3,1.8-4.4-0.6-4.4C215.4,176.8,214.6,177.1,214.3,177.4z"/><path fill="#000000" d="M223.1,178c-0.7,1.7,0.2,3.2,1.9,3.2c1.7,0,2.8-1.8,2-3.4C226.2,176.3,223.8,176.4,223.1,178z"/><path fill="#000000" d="M232.6,177.9c-0.5,0.9-0.4,1.4,0.3,2.2c1.2,1.4,2.2,1.3,3.2-0.2c0.6-0.8,0.7-1.5,0.3-2.2C235.7,176.4,233.4,176.5,232.6,177.9z"/><path fill="#000000" d="M242.2,177.4c-0.4,0.4-0.7,1.2-0.7,2c0,1.5,2.3,2.3,3.6,1.3c1.6-1.3,0.6-3.9-1.4-3.9C243.3,176.8,242.6,177.1,242.2,177.4z"/><path fill="#000000" d="M57.3,186.6c-0.5,0.4-0.9,1.2-0.9,1.6c0,0.7,1.5,2.5,2,2.5c1.1,0,2.5-1.4,2.5-2.5c0-0.8-0.4-1.6-1.1-2C58.4,185.6,58.3,185.6,57.3,186.6z"/><path fill="#000000" d="M66.5,186.8c-1.2,1.2-1,2.5,0.6,3.4c0.8,0.4,1.3,0.3,2.2-0.6c0.9-0.9,1-1.4,0.6-2.2C69,185.9,67.7,185.6,66.5,186.8z"/><path fill="#000000" d="M75.9,186.3c-1.8,1.1-0.7,4.4,1.5,4.4c0.6,0,2-1.8,2-2.5c0-0.8-1.5-2.5-2.1-2.5C77,185.7,76.4,186,75.9,186.3z"/><path fill="#000000" d="M85.3,186.3c-2.2,1.2-0.3,5,2.1,4.1c1-0.4,1.7-2.2,1.2-3C87.9,186.3,86.3,185.8,85.3,186.3z"/><path fill="#000000" d="M94.3,186.3c-2.5,1.4-0.2,5.2,2.3,3.9c1.5-0.8,1.5-3.1,0.1-3.9C95.5,185.6,95.5,185.6,94.3,186.3z"/><path fill="#000000" d="M103.4,186.8c-1.2,1.2-1,2.5,0.6,3.4c0.8,0.4,1.3,0.3,2.2-0.6c0.9-0.9,1-1.4,0.6-2.2C105.9,185.9,104.6,185.6,103.4,186.8z"/><path fill="#000000" d="M112.8,186.8c-1.4,1.1-1.1,2.4,0.9,3.6c0.8,0.5,1.2,0.3,2-0.7C117.7,187.3,115.1,184.9,112.8,186.8z"/><path fill="#000000" d="M122.3,186.3c-1.8,1.1-0.7,4.4,1.5,4.4c0.6,0,2-1.8,2-2.5c0-0.8-1.5-2.5-2.1-2.5C123.4,185.7,122.8,186,122.3,186.3z"/><path fill="#000000" d="M131.1,186.6c-1.2,1.2-1.1,2.1,0.2,3.2c0.8,0.8,1.3,0.8,2.2,0.3c1.5-0.8,1.6-3.1,0.1-3.9C132.3,185.6,132.2,185.6,131.1,186.6z"/><path fill="#000000" d="M140.7,186.6c-0.5,0.4-0.9,1.2-0.9,1.6c0,0.7,1.5,2.5,2,2.5c1.1,0,2.5-1.4,2.5-2.5c0-0.8-0.4-1.6-1.1-2C141.8,185.6,141.7,185.6,140.7,186.6z"/><path fill="#000000" d="M149.8,186.9c-1.3,1.3-1.2,2.1,0.4,3.1c1.1,0.7,1.3,0.7,2.3-0.3c1-1,1.1-1.5,0.7-2.2C152.3,185.8,151.1,185.6,149.8,186.9z"/><path fill="#000000" d="M159.2,186.3c-1.8,1.1-0.7,4.4,1.5,4.4c0.6,0,2-1.8,2-2.5c0-0.8-1.5-2.5-2.1-2.5C160.3,185.7,159.7,186,159.2,186.3z"/><path fill="#000000" d="M168.7,186.3c-1.3,0.8-1.2,3.1,0.2,3.9c1,0.5,1.4,0.4,2.3-0.5c0.6-0.6,1-1.5,0.8-2C171.5,186.5,169.8,185.7,168.7,186.3z"/><path fill="#000000" d="M177.6,186.7c-1.2,1.3-1.2,2,0.1,3.1c0.8,0.8,1.3,0.8,2.2,0.3c1.5-0.8,1.6-3.1,0.1-3.9C178.7,185.6,178.7,185.6,177.6,186.7z"/><path fill="#000000" d="M186.7,186.8c-1.2,1.2-1,2.5,0.6,3.4c0.8,0.4,1.3,0.3,2.2-0.6c0.9-0.9,1-1.4,0.6-2.2C189.3,185.9,188,185.6,186.7,186.8z"/><path fill="#000000" d="M196.1,186.3c-2.2,1.3-0.3,5,2,4.1c1.5-0.6,1.8-3.1,0.6-4C197.5,185.6,197.4,185.6,196.1,186.3z"/><path fill="#000000" d="M205.6,186.3c-1.3,0.8-1.2,3.1,0.2,3.9c1,0.5,1.4,0.4,2.3-0.5c0.6-0.6,1-1.5,0.8-2C208.4,186.5,206.7,185.7,205.6,186.3z"/><path fill="#000000" d="M214.6,186.3c-1.3,0.7-1.3,2.4,0.1,3.5c0.8,0.8,1.3,0.8,2.2,0.3c1.5-0.8,1.6-3.1,0.1-3.9C215.7,185.6,215.8,185.6,214.6,186.3z"/><path fill="#000000" d="M223.7,186.8c-1.3,1.3-1.1,2.6,0.6,3.5c0.8,0.4,1.3,0.3,2.2-0.6c1.3-1.3,1.3-2.1-0.4-3.2C225,185.7,224.7,185.8,223.7,186.8z"/><path fill="#000000" d="M233.6,186.1c-1.1,0.3-1.8,2.1-1.3,3c0.2,0.3,0.8,0.8,1.4,1.1c1.6,0.8,3.6-1.2,2.9-2.7C235.9,186.3,235,185.8,233.6,186.1z"/><path fill="#000000" d="M65.9,196.3c-0.7,1.4-0.7,1.5,0.3,2.5c2,2,4.9,0,3.6-2.5C69.1,194.9,66.7,194.9,65.9,196.3z"/><path fill="#000000" d="M75.4,196.1c-1.5,1.8,0.7,4.5,2.7,3.3c1.9-1.2,1.2-4.1-1-4.1C76.6,195.2,75.8,195.6,75.4,196.1z"/><path fill="#000000" d="M94.2,196c-0.6,0.4-1,1.3-0.8,2.1c0.1,1.1,0.4,1.3,2.1,1.3c1.6,0,2-0.2,2.1-1.3c0.2-1.4-0.7-2.9-1.8-2.9C95.5,195.2,94.8,195.6,94.2,196z"/><path fill="#000000" d="M103.2,196.4c-1.5,2.2,0.7,4.5,2.9,3c1.5-1,1.6-2.1,0.3-3.2C105.2,194.9,104.2,195,103.2,196.4z"/><path fill="#000000" d="M112.6,196.4c-1.3,1.5-0.4,3,1.8,3c1.3,0,1.7-0.3,1.8-1.3c0.2-1.4-0.7-2.9-1.8-2.9C114,195.2,113.2,195.7,112.6,196.4z"/><path fill="#000000" d="M122.2,196c-0.6,0.4-1,1.3-0.8,2.1c0.1,1.1,0.6,1.4,2,1.5c1.6,0.2,1.8,0,2.2-1.3c0.3-1.1,0.1-1.7-0.6-2.3C123.6,195.1,123.4,195.1,122.2,196z"/><path fill="#000000" d="M131.1,196.1c-1.7,1.7-0.4,3.9,2,3.5c1.5-0.2,2.1-2.3,1-3.6C133.3,195,132.2,195,131.1,196.1z"/><path fill="#000000" d="M140.7,196.1c-1.7,1.7-0.7,3.7,1.7,3.5c2-0.2,2.6-2.5,1-3.6C142.1,195,141.7,195.1,140.7,196.1z"/><path fill="#000000" d="M149.6,196.3c-1.2,1.3-0.9,2.5,0.7,3.4c1,0.4,1.4,0.3,2.3-0.6c1-1,1.1-1.3,0.3-2.3C152,195.1,150.8,195,149.6,196.3z"/><path fill="#000000" d="M159.1,196c-0.6,0.4-1,1.3-0.8,2.1c0.1,1.1,0.6,1.4,2,1.5c1.6,0.2,1.8,0,2.2-1.3c0.3-1.1,0.1-1.7-0.6-2.3C160.6,195.1,160.3,195.1,159.1,196z"/><path fill="#000000" d="M168.3,196c-1.1,1.3-0.4,3.4,1,3.6c2.5,0.4,3.7-1.8,2-3.5C170.2,195,169.2,195,168.3,196z"/><path fill="#000000" d="M177.6,196.1c-1.7,1.7-0.7,3.7,1.7,3.5c2-0.2,2.6-2.5,1-3.6C179,195,178.6,195.1,177.6,196.1z"/><path fill="#000000" d="M186.5,196.5c-0.6,0.8-0.7,1.5-0.3,2.2c0.7,1.3,3.1,1.3,3.9-0.1c0.7-1.4,0.7-1.5-0.3-2.5C188.6,194.9,187.5,195,186.5,196.5z"/><path fill="#000000" d="M195.7,196.1c-1.5,1.8,0.7,4.5,2.7,3.3c1.9-1.2,1.2-4.1-1-4.1C196.8,195.2,196.1,195.6,195.7,196.1z"/><path fill="#000000" d="M205,195.6c-0.6,0.6-0.4,2.7,0.3,3.4c1.8,1.8,4.9-1,3.2-3C207.8,195.2,205.7,195,205,195.6z"/><path fill="#000000" d="M214.1,196.1c-1.5,1.8,0.7,4.5,2.7,3.3c1.9-1.2,1.2-4.1-1-4.1C215.3,195.2,214.5,195.6,214.1,196.1z"/><path fill="#000000" d="M223.2,196.1c-1.1,2,0.7,4.1,2.9,3.2c2.2-0.8,1.3-4.1-1-4.1C224.3,195.2,223.5,195.6,223.2,196.1z"/><path fill="#000000" d="M112.7,205.1c-1.1,1.1-1.1,2.1-0.1,3c1.3,1.1,3.4,0.4,3.6-1C116.5,204.6,114.4,203.3,112.7,205.1z"/><path fill="#000000" d="M121.9,205c-1.1,1.3-0.4,3.4,1,3.6c2.5,0.4,3.7-1.8,2-3.5C123.8,204,122.8,204,121.9,205z"/><path fill="#000000" d="M131.1,205.1c-1.1,1.1-0.9,2.4,0.4,3.2c1.9,1.2,4.1-1.5,2.6-3.3C133.3,204,132.2,204,131.1,205.1z"/><path fill="#000000" d="M140.8,204.8c-2.1,1.2-0.6,4.1,1.9,3.7c1.7-0.2,2.1-2.6,0.7-3.6C142.2,204.1,142,204.1,140.8,204.8z"/><path fill="#000000" d="M149.6,205.1c-1.1,1-1.1,1.1-0.3,2.5c0.8,1.3,3.1,1.4,3.9,0.1c0.4-0.8,0.3-1.4-0.3-2.2C151.8,204,150.8,203.8,149.6,205.1z"/><path fill="#000000" d="M158.8,205c-1.1,1.3-0.4,3.4,1,3.6c2.6,0.4,4-2.6,1.8-3.8C160.2,204,159.6,204,158.8,205z"/><path fill="#000000" d="M168.3,205c-1.1,1.3-0.4,3.4,1,3.6c2.5,0.4,3.7-1.8,2-3.5C170.2,204,169.2,204,168.3,205z"/><path fill="#000000" d="M177.6,205.1c-1.7,1.7-0.4,3.9,2,3.5c1.5-0.2,2.1-2.3,1-3.6C179.7,204,178.6,204,177.6,205.1z"/><path fill="#000000" d="M186.5,205.4c-0.6,0.8-0.7,1.5-0.3,2.2c0.7,1.3,3.1,1.3,3.9-0.1c0.7-1.4,0.7-1.5-0.3-2.5C188.6,203.8,187.5,204,186.5,205.4z"/><path fill="#000000" d="M195.7,205c-0.4,0.4-0.6,1.4-0.5,2.1c0.1,1,0.5,1.3,1.8,1.3c2,0,3.1-1.5,2.2-3C198.5,204.2,196.6,203.9,195.7,205z"/><path fill="#000000" d="M205.2,205c-1.1,1.3-0.4,3.4,1,3.6c2.5,0.4,3.7-1.8,2-3.5C207.2,204,206.1,204,205.2,205z"/><path fill="#000000" d="M214.6,204.8c-2.1,1.2-0.6,4.1,1.9,3.7c1.5-0.2,2.1-2.3,1-3.6C216.7,204.1,215.9,204,214.6,204.8z"/><path fill="#000000" d="M121.9,214.5c-0.4,0.4-0.6,1.4-0.5,2.1c0.1,1,0.5,1.3,1.8,1.3c2,0,3.1-1.5,2.2-3C124.7,213.7,122.8,213.4,121.9,214.5z"/><path fill="#000000" d="M130.8,214.5c-1.5,1.8,0.7,4.5,2.7,3.3c1.9-1.2,1.2-4.1-1-4.1C131.9,213.7,131.2,214.1,130.8,214.5z"/><path fill="#000000" d="M140.3,214.5c-1.5,1.8,0.7,4.5,2.7,3.3c1.9-1.2,1.2-4.1-1-4.1C141.4,213.7,140.7,214.1,140.3,214.5z"/><path fill="#000000" d="M149.3,214.8c-0.8,1.6,0.2,3.4,2,3.4c1.8,0,2.7-1.7,1.6-3.2C151.8,213.4,150,213.4,149.3,214.8z"/><path fill="#000000" d="M158.8,214.5c-0.4,0.4-0.6,1.4-0.5,2.1c0.1,1,0.5,1.3,1.8,1.3c2,0,3.1-1.5,2.2-3C161.6,213.7,159.7,213.4,158.8,214.5z"/><path fill="#000000" d="M168.4,214.2c-0.4,0.3-0.7,1.2-0.6,2.1c0.1,1.2,0.5,1.7,1.5,1.8c2.5,0.4,3.7-1.8,2-3.5C170.4,213.6,169.5,213.5,168.4,214.2z"/><path fill="#000000" d="M177.3,214.4c-1.5,1.5-0.3,3.8,2,3.8c0.9,0,1.3-0.4,1.6-1.4C181.5,214.4,179,212.7,177.3,214.4z"/><path fill="#000000" d="M186.2,214.8c-0.4,0.8-0.4,1.5,0,2.2c0.8,1.5,3.1,1.5,3.9,0.1c0.7-1.4,0.7-1.5-0.3-2.5C188.6,213.4,186.9,213.5,186.2,214.8z"/><path fill="#000000" d="M195.8,214.4c-1.5,1.5-0.3,3.8,2,3.8c0.9,0,1.3-0.4,1.6-1.4C200,214.4,197.5,212.7,195.8,214.4z"/><path fill="#000000" d="M205.2,214.5c-1.5,1.8,0.7,4.5,2.7,3.3c1.9-1.2,1.2-4.1-1-4.1C206.3,213.7,205.6,214.1,205.2,214.5z"/><path fill="#000000" d="M122.2,223.3c-0.5,0.3-0.9,1.1-0.9,1.8c0,2.3,3.4,3.2,4.1,1C126.3,224,124.2,222.2,122.2,223.3z"/><path fill="#000000" d="M150.5,223c-0.4,0.2-1,0.8-1.3,1.4c-0.4,0.8-0.4,1.3,0.4,2.2c1.2,1.4,2.2,1.3,3.2-0.2C154.1,224.6,152.5,222.4,150.5,223z"/><path fill="#000000" d="M159.1,223.3c-0.5,0.3-0.9,1.1-0.9,1.8c0,2.3,3.4,3.2,4.1,1C163.2,224,161.1,222.2,159.1,223.3z"/><path fill="#000000" d="M168.7,223.3c-1.3,0.8-1.2,3.1,0.2,3.9c1,0.5,1.4,0.4,2.3-0.5c0.6-0.6,1-1.5,0.8-2C171.5,223.4,169.8,222.6,168.7,223.3z"/><path fill="#000000" d="M186.7,223.8c-1,1-1,1.3-0.6,2.3c1,1.7,2.3,2,3.4,0.6C191.5,224.3,188.8,221.7,186.7,223.8z"/><path fill="#000000" d="M196,223.3c-2.1,1.2-0.2,4.9,2.1,4c1-0.4,1.8-2.6,1.2-3.5C198.9,223,197.1,222.7,196,223.3z"/><path fill="#000000" d="M205.6,223.3c-1.3,0.8-1.2,3.1,0.2,3.9c1,0.5,1.4,0.4,2.3-0.5c0.6-0.6,1-1.5,0.8-2C208.4,223.4,206.7,222.6,205.6,223.3z"/><path fill="#000000" d="M140.3,224c-0.8,1-0.3,2.9,0.9,3.3c1.1,0.4,3-0.6,3-1.6C144.2,223.3,141.8,222.2,140.3,224z"/><path fill="#000000" d="M177.3,224c-0.4,0.4-0.6,1.3-0.3,2c0.8,2.5,4.4,1.7,4.1-1c-0.1-1.2-0.5-1.6-1.6-1.7C178.6,223.2,177.7,223.5,177.3,224z"/><path fill="#000000" d="M140.7,233c-1.2,1.2-1.1,2.2,0.3,3.2c0.8,0.6,1.5,0.7,2.2,0.3c1.3-0.7,1.3-3.1-0.1-3.9C141.8,232,141.7,232,140.7,233z"/><path fill="#000000" d="M149.7,233.2c-1.1,1.2-0.8,2.7,0.8,3.5c0.8,0.4,1.3,0.3,2.2-0.7c1-1,1.1-1.3,0.3-2.4C152,232,150.8,231.9,149.7,233.2z"/><path fill="#000000" d="M205.4,232.5c-0.4,0.1-0.7,0.8-0.7,1.5c0,2.6,3,3.5,4,1.2C209.7,233,207.8,231.5,205.4,232.5z"/><path fill="#000000" d="M214.1,233c-1.5,1.8,0.7,4.5,2.7,3.3c1.9-1.2,1.2-4.1-1-4.1C215.3,232.1,214.5,232.5,214.1,233z"/></g></g></g>
</svg>