<?xml version="1.0" encoding="utf-8"?>
<!-- Svg Vector Icons : http://www.onlinewebfonts.com/icon -->
<!DOCTYPE svg PUBLIC "-//W3C//DTD SVG 1.1//EN" "http://www.w3.org/Graphics/SVG/1.1/DTD/svg11.dtd">
<svg version="1.1" xmlns="http://www.w3.org/2000/svg" xmlns:xlink="http://www.w3.org/1999/xlink" x="0px" y="0px" viewBox="0 0 256 256" enable-background="new 0 0 256 256" xml:space="preserve">
<metadata> Svg Vector Icons : http://www.onlinewebfonts.com/icon </metadata>
<g><g><g><path fill="#FFFFFF" d="M104.2,17.3C90.2,19,81,23.1,73.9,30.9c-4.5,5-7.2,10-9.3,17.7c-0.8,3-1,5.5-1.2,14.3c-0.2,10.2-0.3,10.7-1.3,11.8c-1.7,1.9-2.5,4-3.1,7.9c-1.3,9.2,2.3,19.5,9.9,29.1c1.6,2,3,4.4,3.6,6.1c1.4,4,4.5,9.9,7.1,13.3c1.2,1.6,2.1,3,2.1,3.2c0,0.8-13,6.7-33.3,15.2c-14.9,6.3-18.1,8.5-23.6,15.7C17,175.6,11,192,10.1,205.6c-0.2,3.6-0.1,4.6,0.5,5.6c2.1,3.2,21.4,8.6,40.2,11.1c18.8,2.6,33.5,3.5,56.5,3.5l18.2,0l1.2-1.1c1.6-1.5,1.7-3.7,0.1-5.1c-1.1-1-1.4-1-14.1-1c-38.5,0-71.8-3.8-91-10.3l-4-1.4l0.1-2.8c0.4-9.5,5-23,10.7-31.7c4.9-7.4,8.7-10.1,22-15.7c16.1-6.8,23-9.9,29.9-13.3l7.5-3.8l2.5,1.7c5.7,3.8,12.6,5.9,18.9,5.9c4.3,0,8.1-0.9,12.5-2.9c10.7-5,21.2-17.8,25.8-31.4c0.8-2.4,1.8-4.3,2.9-5.5c2.3-2.5,5.6-7.7,7.3-11.5c2.2-4.9,3.3-9.6,3.3-14.5c0-5.2-0.9-8.6-3-11l-1.5-1.7l-0.5-10.4c-0.5-9.8-0.6-10.6-1.8-13.2c-0.7-1.6-2-3.7-2.9-4.7c-0.9-1.1-1.9-3-2.4-4.3c-2.7-8.2-10.9-14.4-22.6-17.2C120,17.4,109.8,16.7,104.2,17.3z M117.6,25.1c8.9,0.9,15.6,3.3,19.9,7c2.4,2.1,4.4,5.6,4.9,8.4c0.2,1.3,0.9,2.5,2.4,4c3.2,3.3,3.4,4.5,3.8,17.8c0.3,11.3,0.4,11.7,1.4,12.7c0.6,0.6,1.7,1.1,2.4,1.1h1.2l-0.2,5.5c-0.1,4.5-0.4,6.3-1.4,9c-1.5,4.1-4.6,9.3-7.8,12.8c-1.9,2.1-2.5,3.4-3.6,6.8c-3.6,11.8-12,22.7-21,27.1c-3.5,1.7-6.1,2.3-10.2,2.4c-13.4,0-25.3-10.1-30-25.4c-0.9-2.9-1.6-4-3.9-6.6c-5.5-6-8.6-13.2-9.2-20.8c-0.4-5.4-0.1-6.5,1.7-6.8c2.5-0.5,2.7-1.7,3-15.2c0.2-13.9,0.7-16.2,4.1-22.9C82,28.8,96.7,22.9,117.6,25.1z"/><path fill="#FFFFFF" d="M145.7,137.4c-3.5,0.9-6.2,3.2-7.7,6.7c-0.9,2.1-1,3-1,34.2c0,23.8,0.1,32.5,0.6,34c0.8,2.6,4.7,6.5,7.3,7.3c1.4,0.4,6.8,0.6,18.3,0.6h16.3v5.7v5.7h-8.2c-9.2,0-9.9,0.2-10.5,3.2c-0.2,1.3,0,1.7,1.1,3l1.4,1.4h27.9c23.6,0,28.1-0.1,29.2-0.7c2.2-1.1,2.6-3.5,1-5.5c-0.9-1.1-1.2-1.1-9.3-1.4l-8.4-0.2l-0.1-5.5l-0.1-5.5l17.4-0.1c19.2-0.1,18.6-0.1,21.9-3.3c3.4-3.4,3.3-1.6,3.3-38c0-36.1,0.1-34.6-3-37.8c-0.9-0.9-2.4-2-3.4-2.6l-1.9-1l-45.3-0.1C167.5,137.1,146.5,137.2,145.7,137.4z M237.6,145.4c0.8,0.6,0.8,3.4,0.8,33c0,19.6-0.2,32.7-0.5,33.1c-0.4,0.6-6.1,0.7-46,0.8c-45.2,0.1-45.6,0.1-46.5-0.8c-0.9-0.9-0.9-1.5-0.9-32.9c0-33.2,0-33.1,1.9-33.8c0.4-0.1,20.9-0.2,45.6-0.1C229.3,144.7,237,144.8,237.6,145.4z M196,225.7v5.7h-4.5H187v-5.7V220h4.5h4.5V225.7z"/></g></g></g>
</svg>