<?xml version="1.0" encoding="utf-8"?>
<!-- Svg Vector Icons : http://www.onlinewebfonts.com/icon -->
<!DOCTYPE svg PUBLIC "-//W3C//DTD SVG 1.1//EN" "http://www.w3.org/Graphics/SVG/1.1/DTD/svg11.dtd">
<svg version="1.1" xmlns="http://www.w3.org/2000/svg" xmlns:xlink="http://www.w3.org/1999/xlink" x="0px" y="0px" viewBox="0 0 256 256" enable-background="new 0 0 256 256" xml:space="preserve">
<metadata> Svg Vector Icons : http://www.onlinewebfonts.com/icon </metadata>
<g><g><path fill="#FFFFFF" d="M221.4,88.6H34.6c-2.7,0-4.9,2.2-4.9,4.9c0,2.7,2.2,4.9,4.9,4.9h186.8c2.7,0,4.9-2.2,4.9-4.9C226.3,90.8,224.1,88.6,221.4,88.6z M226.3,39.3H29.7C18.8,39.3,10,48.1,10,59V197c0,10.9,8.8,19.7,19.7,19.7h196.7c10.9,0,19.7-8.8,19.7-19.7V59C246,48.2,237.2,39.3,226.3,39.3z M236.1,197c0,5.4-4.4,9.8-9.8,9.8H29.7c-5.4,0-9.8-4.4-9.8-9.8V59c0-5.4,4.4-9.8,9.8-9.8h196.7c5.4,0,9.8,4.4,9.8,9.8L236.1,197L236.1,197z M123.1,177.3H54.3c-2.7,0-4.9,2.2-4.9,4.9c0,2.7,2.2,4.9,4.9,4.9h68.8c2.7,0,4.9-2.2,4.9-4.9C128,179.5,125.8,177.3,123.1,177.3z"/></g></g>
</svg>