<?xml version="1.0" encoding="utf-8"?>
<!-- Svg Vector Icons : http://www.onlinewebfonts.com/icon -->
<!DOCTYPE svg PUBLIC "-//W3C//DTD SVG 1.1//EN" "http://www.w3.org/Graphics/SVG/1.1/DTD/svg11.dtd">
<svg version="1.1" xmlns="http://www.w3.org/2000/svg" xmlns:xlink="http://www.w3.org/1999/xlink" x="0px" y="0px" viewBox="0 0 256 256" enable-background="new 0 0 256 256" xml:space="preserve">
<metadata> Svg Vector Icons : http://www.onlinewebfonts.com/icon </metadata>
<g><g><g><path fill="#FFFFFF" d="M101.5,56c-0.3,0.1-2.3,0.6-4.5,1.1c-17.4,4-32.8,18.8-38.5,37.2c-0.6,1.9-1.3,4.4-1.6,5.6l-0.6,2.1l-4.1,0.7c-11.9,1.9-23.4,8.5-31.2,17.9c-12.3,14.9-14.5,34.9-5.7,51.6c6.9,13.1,18.5,22,33.7,26.2l5.4,1.5H128h73.6l5.2-1.4c15.8-4.4,27.9-14,34.4-27.3c8.7-18,5.4-38.2-8.7-52.9c-7.7-8-17-13.2-27.9-15.4l-4.5-1l-1.9-4.5c-5.1-11.9-14.2-20.7-24.6-23.7c-6-1.8-15.1-0.9-20.8,2l-2.6,1.3l-2.4-3c-4.4-5.5-12.7-11.7-19.4-14.5c-6.6-2.7-10.4-3.4-18.6-3.6C105.5,55.9,101.9,55.9,101.5,56z M115.3,68.9c5.5,1.1,9.4,2.6,13.9,5.6c6.4,4.2,10.4,8.9,17,20l0.9,1.4l4.2-3.7c5.8-5.1,9.1-6.6,14.2-6.6c3.5,0,4.5,0.3,7.6,1.8c7.3,3.6,14.1,13.3,16.2,23.3l0.9,4.2l3.3-0.3c5.7-0.6,15.1,1.9,21.6,5.7c1.7,1,5.2,3.9,7.7,6.4c7.7,7.7,11.1,16.4,10.5,26.4c-1,16.1-12.9,29.4-29.8,33.5c-4.4,1-6,1.1-75.5,1.1c-69.4,0-71-0.1-75.5-1.1c-11-2.7-20.3-9.5-25.6-18.9c-6.7-11.7-5.5-26.8,2.8-37.7c4.9-6.4,13-11.8,21.1-14.1c2.4-0.6,6.5-1.2,10.2-1.4l6.3-0.3l0.3-1.9c0.2-1.1,0.3-2.7,0.3-3.6s0.6-4.1,1.3-7C75.1,79.2,95.1,65,115.3,68.9z"/></g></g></g>
</svg>