<?xml version="1.0" encoding="utf-8"?>
<!-- Svg Vector Icons : http://www.onlinewebfonts.com/icon -->
<!DOCTYPE svg PUBLIC "-//W3C//DTD SVG 1.1//EN" "http://www.w3.org/Graphics/SVG/1.1/DTD/svg11.dtd">
<svg version="1.1" xmlns="http://www.w3.org/2000/svg" xmlns:xlink="http://www.w3.org/1999/xlink" x="0px" y="0px" viewBox="0 0 256 256" enable-background="new 0 0 256 256" xml:space="preserve">
<metadata> Svg Vector Icons : http://www.onlinewebfonts.com/icon </metadata>
<g><g><g><path fill="#FFFFFF" d="M66.3,69.9c-1.5,0.5-7.6,6.4-28.6,27.4c-29.4,29.4-28.6,28.5-27.3,32.9c0.5,1.8,4.1,5.6,27,28.5C52,173.4,64.6,185.6,65.4,186c4.5,2.1,10.3-0.7,11.2-5.4c0.8-4.3,1.5-3.5-23.8-28.9l-23.5-23.6l23.5-23.5c25.4-25.5,24.6-24.6,23.8-28.9c-0.3-1.7-2.6-4.8-4.1-5.6C70.9,69.4,68.3,69.3,66.3,69.9z"/><path fill="#FFFFFF" d="M184.8,69.9c-4.1,1.5-6.4,5.9-5.1,9.8c0.5,1.5,5.6,6.8,23.8,25.1l23.3,23.3l-23.3,23.3c-20,20.1-23.3,23.6-23.8,25.4c-1.8,6.1,4.5,11.7,10.6,9.4c1.8-0.7,54.2-53,55-55c0.9-2,0.9-4.1,0-6.2c-0.4-1-10.9-11.8-27.3-28.2C188.4,67.3,189.6,68.3,184.8,69.9z"/><path fill="#FFFFFF" d="M154.6,73.2c-0.8,0.2-2,1-2.7,1.6c-1.3,1.3-11.4,18.6-23.6,40.5c-12.2,21.8-24.9,44.3-30.5,54.1c-4.4,7.6-5.1,9-5,10.8c0,1.2,0.4,2.7,0.9,3.4c2,3.1,6.6,4.1,9.6,2.1c1.9-1.3,12.7-19.7,33.6-57.2c7.3-13.2,16.2-29,19.8-35.2c5.9-10.4,6.5-11.6,6.5-13.8c0-2-0.2-2.7-1.5-4.1c-0.8-1-2.3-2-3.3-2.2C156.3,72.6,156.5,72.6,154.6,73.2z"/></g></g></g>
</svg>