<?xml version="1.0" encoding="utf-8"?>
<!-- Svg Vector Icons : http://www.onlinewebfonts.com/icon -->
<!DOCTYPE svg PUBLIC "-//W3C//DTD SVG 1.1//EN" "http://www.w3.org/Graphics/SVG/1.1/DTD/svg11.dtd">
<svg version="1.1" xmlns="http://www.w3.org/2000/svg" xmlns:xlink="http://www.w3.org/1999/xlink" x="0px" y="0px" viewBox="0 0 256 256" enable-background="new 0 0 256 256" xml:space="preserve">
<metadata> Svg Vector Icons : http://www.onlinewebfonts.com/icon </metadata>
<g><g><g><path fill="#FFFFFF" d="M115.5,10.1c-26.1,2.2-44.4,6.5-60.3,14.3c-8.9,4.4-13.3,7.4-18.4,12.5c-4.6,4.6-6.7,7.8-8.7,12.9L27,53v75.1v75.1l1.1,2.8c7,18.4,33.1,32.7,69.1,37.9c11.3,1.6,17.9,2.1,30.9,2.1c6.9,0,15.1-0.3,18.4-0.6c43.4-4.1,73.8-18.8,81.6-39.4l1.1-2.8v-75.1V53l-1.2-3.2c-2-5-4.1-8.2-8.7-12.9c-5-5.1-9.5-8.1-18.4-12.5c-13.7-6.7-30.5-11.2-50.6-13.4C143.6,10.3,120.7,9.7,115.5,10.1z M139.3,20c36.6,1.3,70.3,14.6,78.3,30.9c1.4,2.7,1.5,3.4,1.5,7.3c0,3.6-0.2,4.7-1.2,6.8c-3.1,6.5-10.2,12.6-20.9,17.9c-12.8,6.3-27,10.2-46.3,12.6c-9.2,1.2-36.2,1.2-45.4,0C86,93.1,71.8,89.1,59,82.9C48.3,77.6,41.1,71.5,38.1,65c-1-2.2-1.2-3.3-1.2-6.8c0-3.9,0.1-4.6,1.5-7.3c8.2-16.7,41.4-29.4,80.7-31c4.5-0.2,9.4-0.3,10.8-0.2C131.3,19.7,135.5,19.9,139.3,20z M47,87.4c31.7,19.7,89.5,24.8,134.6,11.8c14.2-4,26.4-10.1,34.8-17.2l3.4-2.9v12.6c0,14.9-0.3,17.9-2.3,22.1c-1.7,3.7-7.4,9.7-12.3,12.9c-6.7,4.4-17.9,9.2-28.3,12.1c-29.8,8.2-68.2,8.2-98,0c-10.3-2.9-21.5-7.6-28.3-12.1c-4.9-3.2-10.6-9.1-12.3-12.9c-2-4.2-2.3-7.2-2.3-22.1V79.1l3.4,2.9C41.4,83.5,44.8,85.9,47,87.4z M37.8,128.6c1.3,1.5,7.5,6.1,10.8,8.1c14.2,8.4,34.6,14.3,58.9,17c7.5,0.8,33.5,0.8,41,0c24.3-2.6,44.7-8.5,58.9-17c3.3-1.9,9.5-6.6,10.8-8.1c0.5-0.5,1.1-1,1.3-1c0.5,0,0.5,23.7,0,28.2c-2,17.1-29.5,31.5-69.5,36.2c-10,1.2-33.8,1.2-43.8,0c-39.7-4.7-67.3-19-69.5-35.9c-0.6-4.1-0.6-28.5-0.1-28.5C36.8,127.6,37.3,128.1,37.8,128.6z M41.6,180.1c15.4,12.5,44.8,21.1,76.8,22.4c34.7,1.4,67.7-5,88.5-17.4c4.1-2.5,5.9-3.8,11.6-8.4l1.4-1.1v10.8c0,5.9-0.2,12-0.5,13.5c-1.4,8.7-8.8,16.2-22.4,22.9c-12.7,6.3-26.6,10-46.2,12.6c-9.5,1.2-36.2,1.2-45.7,0c-19.6-2.5-33.4-6.3-46.2-12.6c-13.6-6.7-21-14.3-22.4-22.9c-0.3-1.5-0.5-7.6-0.5-13.5v-10.8l1.4,1.1C38.3,177.3,40.1,178.8,41.6,180.1z"/></g></g></g>
</svg>