<?xml version="1.0" encoding="utf-8"?>
<!-- Svg Vector Icons : http://www.onlinewebfonts.com/icon -->
<!DOCTYPE svg PUBLIC "-//W3C//DTD SVG 1.1//EN" "http://www.w3.org/Graphics/SVG/1.1/DTD/svg11.dtd">
<svg version="1.1" xmlns="http://www.w3.org/2000/svg" xmlns:xlink="http://www.w3.org/1999/xlink" x="0px" y="0px" viewBox="0 0 256 256" enable-background="new 0 0 256 256" xml:space="preserve">
<metadata> Svg Vector Icons : http://www.onlinewebfonts.com/icon </metadata>
<g><g><g><path fill="#FF6200" d="M125.1,10.4C122.5,11.6,11.8,114,10.7,116.2c-1.8,3.8-0.1,8.3,4,9.8c4,1.6,5.2,0.9,16.6-9.6c5.6-5.1,10.3-9.4,10.6-9.5c0.3-0.1,0.5,28.7,0.5,69.4v69.7H128h85.6v-69.7c0-40.4,0.2-69.6,0.5-69.4c0.3,0.1,5,4.4,10.6,9.5c11.4,10.6,12.5,11.2,16.7,9.6c4-1.5,5.7-5.8,4-9.6c-0.7-1.7-13.6-13.7-56.6-53.4c-30.6-28.3-56.2-51.7-56.8-52.1C130.2,9.8,127,9.5,125.1,10.4z M134.2,33c3.1,2.9,19,17.5,35.2,32.5l29.5,27.3v69v69l-3.3,0.3c-1.8,0.2-11.1,0.3-20.6,0.2l-17.3-0.1l-0.2-35.4l-0.1-35.3H128H98.6l-0.1,35.3l-0.2,35.4H77.9H57.4l-0.2-69.2l-0.1-69.2l35.3-32.6c19.4-17.9,35.5-32.5,35.7-32.4C128.3,27.8,131.1,30.2,134.2,33z M142.6,203.1l-0.2,28H128h-14.4l-0.2-28l-0.1-27.9H128h14.7L142.6,203.1z"/></g></g></g>
</svg>