<?xml version="1.0" encoding="utf-8"?>
<!-- Svg Vector Icons : http://www.onlinewebfonts.com/icon -->
<!DOCTYPE svg PUBLIC "-//W3C//DTD SVG 1.1//EN" "http://www.w3.org/Graphics/SVG/1.1/DTD/svg11.dtd">
<svg version="1.1" xmlns="http://www.w3.org/2000/svg" xmlns:xlink="http://www.w3.org/1999/xlink" x="0px" y="0px" viewBox="0 0 256 256" enable-background="new 0 0 256 256" xml:space="preserve">
<metadata> Svg Vector Icons : http://www.onlinewebfonts.com/icon </metadata>
<g><g><g><path fill="#FF6200" d="M114.4,10.9c-22.3,4.4-41.7,19.4-51.6,39.7c-8,16.6-9.4,36.3-3.8,53.8c1.3,4.2,23.5,49.8,60.2,123.8l8.8,17.7l18.6-37.6c10.2-20.7,25.4-51.5,33.7-68.4c18.5-37.5,20-41.8,20-57.4c-0.1-9-0.8-14.4-3.2-22c-8-25.6-30.2-45.1-56.3-49.7C134.1,9.7,120.5,9.7,114.4,10.9z M140.9,45.8c16.1,7.7,22.4,27.4,13.6,42.7c-2.3,4-8.5,10-12.3,12c-8.7,4.5-20.3,4.3-28.9-0.3c-4-2.2-9.7-8-11.9-11.9c-8.1-14.9-2.2-34.3,12.7-41.8c5.3-2.7,7.8-3.3,15-3.1C135.4,43.5,136.2,43.7,140.9,45.8z"/></g></g></g>
</svg>