<?xml version="1.0" encoding="utf-8"?>
<!-- Svg Vector Icons : http://www.onlinewebfonts.com/icon -->
<!DOCTYPE svg PUBLIC "-//W3C//DTD SVG 1.1//EN" "http://www.w3.org/Graphics/SVG/1.1/DTD/svg11.dtd">
<svg version="1.1" xmlns="http://www.w3.org/2000/svg" xmlns:xlink="http://www.w3.org/1999/xlink" x="0px" y="0px" viewBox="0 0 256 256" enable-background="new 0 0 256 256" xml:space="preserve">
<metadata> Svg Vector Icons : http://www.onlinewebfonts.com/icon </metadata>
<g><g><g><path fill="#FFFFFF" d="M81.6,19.3c-25.9,5.2-47.4,9.5-47.7,9.5c-0.5,0-0.6,13.2-0.6,63.9v63.9l1.6,5.8c4.1,14.9,11.8,27.3,25,40.6c9.8,9.8,19.4,17.3,33,25.4c8.3,5,23.4,12.6,31.1,15.6l5,2l3.2-1.4c6.3-2.7,21.4-10.5,29.5-15.4c32.8-19.7,53.1-42.1,59.6-65.9l1.3-4.5l0.1-65.2c0-35.8,0-65.2,0-65.2s-20.8-4.1-46.1-9.1c-25.2-5-46.3-9.1-46.9-9.3C129.2,9.9,107.5,14.1,81.6,19.3z M168.7,27.2c21.4,4.2,40.2,8,41.7,8.3l2.8,0.6v61.1v61.1l-1.3,4.2c-7.7,24.9-33.6,49-73.8,68.9c-4.6,2.3-8.8,4.2-9.3,4.2c-1.9,0-18.5-7.8-27.6-13c-6-3.4-17.8-11.3-23.1-15.5c-9.8-7.7-18.8-17.3-24.6-26.2c-5-7.7-9.2-17.5-10.4-24.4c-0.3-1.8-0.5-23.1-0.4-61.4l0.1-58.5l42.2-8.5c23.2-4.7,42.8-8.5,43.4-8.5C129.2,19.5,147.3,23,168.7,27.2z"/><path fill="#FFFFFF" d="M141.9,111.3l-28.8,28.8l-13.9-13.9l-13.9-13.9l-3.3,3.3l-3.3,3.3L96,136.1l17.1,17.1l32-32c17.6-17.6,32-32.2,32-32.4c0-0.5-5.6-6.3-6.1-6.3C170.8,82.5,157.8,95.5,141.9,111.3z"/></g></g></g>
</svg>