<?xml version="1.0" encoding="utf-8"?>
<!-- Svg Vector Icons : http://www.onlinewebfonts.com/icon -->
<!DOCTYPE svg PUBLIC "-//W3C//DTD SVG 1.1//EN" "http://www.w3.org/Graphics/SVG/1.1/DTD/svg11.dtd">
<svg version="1.1" xmlns="http://www.w3.org/2000/svg" xmlns:xlink="http://www.w3.org/1999/xlink" x="0px" y="0px" viewBox="0 0 256 256" enable-background="new 0 0 256 256" xml:space="preserve">
<metadata> Svg Vector Icons : http://www.onlinewebfonts.com/icon </metadata>
<g><g><g><path fill="#FFFFFF" d="M158.5,5.4c-1.6,1.1-2.1,3.5-2.1,10.3V23l-2.3,0.8c-1.3,0.4-4,1.6-6.1,2.5l-3.7,1.6l-5.6-5.4c-3.8-3.8-6.1-5.5-7.1-5.5c-2.1,0-20.8,18.6-20.8,20.8c0,1,1.7,3.2,5.4,7l5.4,5.6l-2.4,6.1l-2.4,6.1h-7.8c-10.9,0-10.3-0.9-10.3,15.7c0,17-0.7,15.9,10,15.9h8.1l0.4,1.7c0.2,0.9,1.3,3.8,2.5,6.2l2.1,4.5l-5.6,5.6c-4,4-5.6,6.1-5.6,7.1c0,1.1,2.4,3.9,9.3,10.9c5.1,5.1,9.9,9.5,10.7,9.7c1.2,0.4,2.4-0.5,7.3-5.3l5.9-5.7l5,2.1c2.8,1.1,5.6,2.3,6.2,2.5c0.9,0.4,1.1,1.3,1.1,8c0,11-0.8,10.4,15.3,10.7c9.5,0.1,13.2-0.1,14.4-0.7c1.6-0.8,1.6-0.9,1.8-9.1l0.2-8.3l2.3-0.8c1.3-0.4,4-1.6,6.1-2.5l3.8-1.8l5.4,5.2c5.9,5.7,7,6.4,9,5.4c2-1,17.4-16.3,18.5-18.4c0.5-0.9,0.8-2.3,0.6-2.8c-0.2-0.6-2.8-3.5-5.7-6.4l-5.3-5.2l1.8-3.9c0.9-2.1,2.1-4.9,2.5-6.2l0.8-2.3h7.8c11,0,10.4,0.9,10.4-15.4c0-16.7,0.6-15.7-10.5-16.2l-8-0.3l-1.1-3.2c-0.6-1.8-1.7-4.4-2.5-5.9l-1.5-2.7l5.7-5.9c3.2-3.2,5.7-6.3,5.7-6.9c0-0.6-4.3-5.5-9.6-10.9c-7.3-7.4-10-9.7-11.2-9.7c-1.2,0-3.1,1.5-7.1,5.4l-5.4,5.4l-6.2-2.5l-6.2-2.5l-0.2-7.8c-0.1-6.1-0.4-8-1.2-8.9c-0.9-1-2.3-1.1-14.3-1.1C165.2,4.9,158.9,5.2,158.5,5.4z M180.4,19.7c0,8.6,0.4,9.2,6,10.8c2.1,0.6,5.9,2.1,8.5,3.5c2.7,1.3,5.5,2.5,6.3,2.5c1.1,0,3.1-1.5,6.8-5.2l5.2-5.2l5.7,5.7l5.7,5.6l-5.4,5.5c-3,3-5.4,5.9-5.4,6.4c0,0.6,0.9,2.8,2.1,5c1.2,2.2,3,6.2,3.9,9c0.9,2.8,2,5.4,2.3,5.8c0.4,0.6,2.9,0.8,8.1,0.8h7.5v8.2v8.2h-7c-3.8,0-7.5,0.3-8.1,0.6c-0.7,0.4-1.7,2.5-2.5,5.2c-0.8,2.5-2.5,6.8-3.9,9.5c-1.3,2.7-2.5,5.2-2.5,5.6c0,0.4,2.4,3.2,5.4,6.2l5.4,5.5l-5.7,5.6l-5.6,5.6l-5.4-5.2c-3-2.8-5.9-5.2-6.5-5.2c-0.6,0-3.2,1.1-5.9,2.5c-2.6,1.4-6.8,3.1-9.3,3.9c-2.7,0.8-4.8,1.8-5.2,2.5c-0.4,0.6-0.6,4.3-0.6,8.1v7h-7.9h-7.9v-6.9c0-8.6-0.3-8.9-7.9-11.5c-3.1-1.1-7.1-2.8-8.9-3.8c-1.8-1-3.7-1.8-4.4-1.8c-0.6,0-3.6,2.4-6.6,5.4l-5.5,5.4l-5.6-5.7l-5.7-5.7l5.2-5.2c5.9-6,6.1-6.7,3.3-11.9c-1.1-1.9-2.7-5.7-3.5-8.5c-2.3-7.3-2.2-7.3-11.1-7.3h-7.5l0.2-8.1l0.2-8l7.7-0.2c5-0.1,7.8-0.4,8.3-0.9c0.3-0.4,1.1-2.5,1.7-4.5c0.6-2.1,2.1-6,3.5-8.8c1.3-2.7,2.5-5.7,2.5-6.5c0-1.1-1.5-3.1-5-6.8l-5-5.2l5.7-5.6l5.7-5.7l5.2,5.2c3.5,3.5,5.7,5.2,6.7,5.2c0.8,0,3-0.8,4.8-1.9c1.8-1,5.8-2.7,8.9-3.7c4.2-1.4,5.8-2.2,6.4-3.3c0.5-0.9,0.8-4.2,0.8-8.3v-6.8h7.9h7.9L180.4,19.7L180.4,19.7z"/><path fill="#FFFFFF" d="M164.3,52.1c-11.1,4-18.3,13.1-19.1,24.2c-1,14.6,8.5,26.6,23.2,29.2c11,1.9,23.3-4.4,28.3-14.8c2.8-5.7,3.7-10.9,2.7-16.4c-1.6-9.2-6.9-16.5-15-20.4c-4.2-2.1-5.2-2.3-10.9-2.6C168.8,51,166.7,51.2,164.3,52.1z M178.3,59.5c4.9,1.5,9.1,5.2,11.5,10.2c4,8.3,2.3,17-4.5,23.2c-11.9,10.7-30.9,3.3-32.5-12.7C151.4,66.3,164.8,55.5,178.3,59.5z"/><path fill="#FFFFFF" d="M55.6,139.4c-1.7,0.7-2,2-2.2,8.5l-0.2,4.9l-4,1.6l-4,1.6l-3.9-3.9c-5.7-5.6-6-5.6-14.8,3.3c-8.7,8.8-8.8,9.1-3.2,14.7l3.9,3.9l-1.6,4l-1.6,4l-6,0.3c-3.7,0.2-6.4,0.6-6.9,1.1c-0.6,0.6-0.9,3.7-1,10.9c-0.3,13.3-0.4,13.1,7.8,13.3l6,0.2l1.6,4l1.6,4l-3.9,3.9c-5.7,5.7-5.6,6,3.6,15.1c4.9,4.8,8,7.4,8.8,7.4c0.8,0,3.1-1.6,5.6-4l4.2-4l4,1.6l4,1.6v5.8c0,8.1-0.4,7.9,12.7,7.9c12.9,0,12.5,0.3,12.5-8v-5.7l4.2-1.7l4.2-1.6l4.2,4.1c2.6,2.5,4.7,4,5.7,4c2,0,16.3-14.4,16.3-16.3c0-0.9-1.5-3-4-5.7l-4.1-4.2l1.6-4.2l1.7-4.2h5.7c8.1,0,7.9,0.3,7.9-12.4c0-13.1,0.1-12.9-7.8-12.9h-5.8l-1.6-3.9l-1.6-4l4-4.3c2.4-2.5,4-4.8,4-5.6c0-0.9-2.6-4-7.4-8.8c-9.1-9.2-9.4-9.3-15.1-3.6l-3.9,3.9l-4-1.6l-4-1.6l-0.2-5.9c-0.2-8.2-0.1-8.1-12.4-8C61.3,138.8,56.3,139,55.6,139.4z M71.2,151.9c0,3,0.3,5.4,0.8,5.9c0.4,0.6,2.6,1.6,4.9,2.4c2.3,0.8,5.4,2,6.9,2.9c4,2.2,5,2,8.9-2c1.9-1.9,3.7-3.5,4-3.5c0.4,0,2.1,1.5,4,3.3l3.3,3.3l-3.7,3.9c-2.1,2.1-3.8,4.4-3.8,4.9c0,0.6,0.8,2.6,1.8,4.7c0.9,2,2.3,5.2,2.9,7.1c0.6,1.9,1.5,3.9,2.1,4.2c0.6,0.5,3,0.8,6.2,0.8h5.2v5v5h-4.9c-6.1,0-7.3,0.8-8.6,5.3c-0.6,1.9-1.9,5-3,7.1c-1.1,2.1-1.8,4.2-1.6,5c0.2,0.7,1.9,2.8,3.8,4.7l3.5,3.4l-3.6,3.7l-3.6,3.6l-3.9-3.7c-2.1-2.1-4.4-3.8-4.9-3.8s-2.6,0.9-4.5,1.9c-2,1.1-5.1,2.3-7,2.9c-4.5,1.3-5.3,2.5-5.3,8.6v4.9h-5h-5v-5.2c0-3.2-0.3-5.6-0.8-6.2c-0.4-0.6-2.4-1.5-4.3-2.1c-1.9-0.6-5.1-2-7.1-2.9c-2-1-4.1-1.8-4.7-1.8c-0.5,0-2.8,1.7-4.9,3.8l-3.9,3.7l-3.3-3.3c-1.8-1.8-3.3-3.6-3.3-4c0-0.3,1.6-2.1,3.5-4c2-2,3.5-4,3.5-4.7c0-0.8-0.8-2.9-1.8-4.8s-2.3-5-2.9-7.1c-0.6-2.1-1.5-3.9-2.2-4.2c-0.6-0.4-3.3-0.6-5.9-0.6h-4.8v-5v-5h5.3c3.7,0,5.5-0.3,6-0.9c0.4-0.4,1.4-2.9,2.3-5.4c0.8-2.5,2.1-5.4,2.8-6.6c2-3.3,1.6-4.8-2.2-8.6c-1.9-1.9-3.5-3.7-3.5-4c0-0.9,5.8-6.7,6.6-6.7c0.4,0,2.2,1.6,4.1,3.5c3.9,4,5.1,4.2,9,2c1.5-0.8,4.5-2.1,6.9-2.9c2.4-0.8,4.5-1.9,4.9-2.5c0.4-0.6,0.6-3.3,0.6-5.9v-4.8h5h5L71.2,151.9L71.2,151.9z"/><path fill="#FFFFFF" d="M60,174.3c-3.7,1.2-6.6,3.1-9.7,6.4c-4.1,4.4-5.4,7.8-5.4,14.1c0,4.8,0.2,5.8,2.1,9.6c3.7,7.4,9.6,11.3,18.1,11.7c6.9,0.3,11.3-1.3,16.2-6.1c4.8-4.9,6.4-9.2,6.1-16.2c-0.4-8.5-4.3-14.5-11.6-18.1C71,173.5,64.4,172.9,60,174.3z M69.8,181.6c3.8,1.1,6.9,3.7,8.6,7.4c3.2,6.4,1.1,13.7-4.9,17.7c-5.9,3.9-14.8,2-18.8-4c-3.9-5.9-3.2-12.4,1.8-17.4C60.5,181.5,65,180.3,69.8,181.6z"/></g></g></g>
</svg>