<?xml version="1.0" encoding="utf-8"?>
<!-- Svg Vector Icons : http://www.onlinewebfonts.com/icon -->
<!DOCTYPE svg PUBLIC "-//W3C//DTD SVG 1.1//EN" "http://www.w3.org/Graphics/SVG/1.1/DTD/svg11.dtd">
<svg version="1.1" xmlns="http://www.w3.org/2000/svg" xmlns:xlink="http://www.w3.org/1999/xlink" x="0px" y="0px" viewBox="0 0 256 256" enable-background="new 0 0 256 256" xml:space="preserve">
<metadata> Svg Vector Icons : http://www.onlinewebfonts.com/icon </metadata>
<g><g><g><path fill="#FFFFFF" d="M120.1,10.1c-14.8,1-29.8,4.9-43.2,11.4c-24,11.6-42.5,30-54.7,54.3c-15.9,31.5-16.2,70.5-1,102.5c15.9,33.3,45,56.9,80.3,65.1c12.2,2.8,30,3.6,42.3,1.9c39.9-5.6,73.4-30.2,90.7-66.5c25.2-53,7.7-116.4-41.2-149.2c-16-10.8-36.6-18-54.7-19.2c-3-0.2-6.7-0.4-8.2-0.5C128.9,9.7,124.2,9.9,120.1,10.1z M138.3,19.3c10.8,3.9,20.8,14.2,28.9,29.5c3.8,7,7,15.1,6.4,15.8c-0.6,0.5-13.3,2.7-22.3,3.7c-3.8,0.4-13.9,0.8-23.3,0.8c-9.4,0-19.5-0.4-23.3-0.8c-9.1-1-21.7-3.1-22.3-3.8C81.3,63.5,88.3,48.4,94,40c7.9-11.9,18.2-19.9,28.2-22C126.4,17,133.9,17.7,138.3,19.3z M95.9,25.6c-7.4,8.1-15,20.5-19.7,32.7c-1.2,3-2,4.4-2.7,4.4c-2.3,0-26.3-7.4-27.4-8.4c-0.5-0.5,7.7-8.6,12.9-12.7c9.6-7.6,22.6-14.7,34-18.5c3.5-1.2,6.5-2.1,6.8-2.2C100,21,98.3,23.1,95.9,25.6z M162.9,23.1c11.5,3.8,24.5,10.8,34.1,18.5c5.2,4.1,13.4,12.2,12.9,12.7c-1.2,1-25.2,8.4-27.5,8.4c-0.6,0-1.5-1.5-2.7-4.4c-4.7-12.2-12.2-24.6-19.7-32.7c-2.4-2.5-4.2-4.7-4-4.7C156.2,21,159.3,21.9,162.9,23.1z M51.9,64.2c5.3,1.8,12,3.9,14.9,4.6l5.3,1.3L71,74.1c-3.1,11.2-6.5,32.9-6.5,41.9c0,2.2-0.2,5-0.4,6.2l-0.4,2.3H40.4H17.1l0.4-3.8c1.9-19,6.8-35,15.3-49c5.1-8.4,7.5-11.5,8.6-11.1C41.9,60.7,46.7,62.4,51.9,64.2z M218.4,64.1c11.4,16,18,34.5,20.1,56.6l0.4,3.8h-23.3h-23.3l-0.3-3.2c-0.1-1.7-0.5-7.1-0.9-11.9c-0.8-10.5-2.5-21.2-5.1-31.6l-1.9-7.6l4.8-1.3c5.6-1.4,20.9-6.3,23.7-7.6c1-0.5,2.1-0.9,2.5-0.9C215.4,60.3,216.9,62,218.4,64.1z M85.7,73c15.1,2.8,22.5,3.4,42.3,3.4c19.7,0,27.3-0.6,42.1-3.3c3.3-0.6,6.2-0.9,6.5-0.7c0.8,0.8,3.5,12.1,5,21c1.8,10.9,2.7,19.9,2.7,26.4v4.8H128H71.7v-5c0-5.9,1.4-19.8,2.7-27.1c0.8-4.6,4.6-20.6,4.8-20.6C79.3,71.8,82.2,72.4,85.7,73z M64.1,135.5c0.2,2.1,0.6,7.6,1,12.2c0.8,10.3,2.5,20.7,5.1,30.8l1.9,7.7l-6.4,1.6c-3.5,0.9-10.7,3.1-15.8,4.9c-7.4,2.5-9.5,3.1-10,2.5c-1.8-1.8-7.7-11.3-10.4-16.6c-6.7-13.1-10.4-26.4-11.9-42.7l-0.4-4.1h23.3h23.2L64.1,135.5z M184.3,136.5c0,10.1-2.5,28.3-5.5,40c-1,3.8-2,7.1-2.2,7.4c-0.2,0.2-2.3,0-4.7-0.4c-14.2-2.8-23.9-3.6-43.6-3.6c-20.1,0-27.1,0.5-42.7,3.3c-3.5,0.7-6.4,1.1-6.4,1c-0.4-0.5-3.5-13.4-4.4-18.6c-1.6-8.1-3.1-22.6-3.1-29v-4.8H128h56.3L184.3,136.5L184.3,136.5z M238.5,135.5c-1.7,17.6-5.9,32-13.1,45.3c-2.5,4.7-8.8,14.3-9.6,14.8c-0.2,0.1-4.6-1.2-9.7-3s-12.2-4-15.7-4.9l-6.4-1.6l1.9-7.7c2.7-10.4,4.4-21,5.1-31.5c0.4-4.8,0.8-10.2,0.9-12l0.3-3.2h23.3h23.3L238.5,135.5z M151.9,188c9.4,1.1,22.1,3.3,22.1,3.8c0,1.2-4,10.5-6.8,15.7c-8.1,15.3-18,25.4-29.2,29.7c-3,1.2-4.8,1.5-10,1.5c-5.5,0-7-0.2-10.5-1.6c-11.3-4.4-22-15.6-29.7-31.3c-2.7-5.2-5.8-12.8-5.8-13.7c0-0.7,13.5-2.9,22.7-3.8c3.7-0.3,7.7-0.7,9.1-0.8C118.2,186.8,146.4,187.4,151.9,188z M76.2,197.9c4.7,12.2,12.2,24.6,19.7,32.7c2.4,2.6,4.2,4.7,4,4.7c-0.2,0-3.3-1-6.8-2.2c-11.7-3.9-24.5-10.8-34.1-18.5c-5.1-4.1-13.4-12.2-12.9-12.7c1.4-1.2,24.6-8.4,27.2-8.5C74.3,193.5,74.8,194.3,76.2,197.9z M192.1,195.9c4.7,1.4,10.4,3.1,12.6,4c2.3,0.8,4.5,1.6,5,1.8c1.9,0.6-11.7,12.8-21.4,19.2c-7,4.6-17,9.4-25.3,12.2c-3.6,1.2-6.7,2.2-6.9,2.2c-0.2,0,1-1.5,2.7-3.2c7.6-7.8,15.6-20.6,20.8-33.6c1.4-3.5,2.3-5,3-5C183.1,193.5,187.4,194.6,192.1,195.9z"/></g></g></g>
</svg>